<svg width="189" height="33" viewBox="0 0 189 33" fill="none" xmlns="http://www.w3.org/2000/svg">
<path d="M56.0065 26.1311C54.1653 26.1311 52.4421 25.8125 50.837 25.1751C49.2554 24.5378 47.9925 23.6762 47.0483 22.5904C46.1277 21.5753 45.3134 20.1118 44.6052 18.1998C43.897 16.2642 43.543 14.5646 43.543 13.1011C43.543 10.8586 44.1213 8.73414 45.2779 6.7277C46.4582 4.72127 48.0279 3.10431 49.9872 1.87685C51.9464 0.649378 54.0355 0.0356445 56.2543 0.0356445C57.647 0.0356445 59.0161 0.295301 60.3616 0.814615C61.4003 1.23951 62.25 1.73521 62.911 2.30174C63.5955 2.86826 64.4571 3.78886 65.4958 5.06354C66.0387 5.70088 66.3101 6.29101 66.3101 6.83393C66.3101 7.47126 66.0505 8.03779 65.5312 8.5335C65.0355 9.0056 64.4689 9.24165 63.8316 9.24165C63.147 9.24165 62.5687 8.95839 62.0966 8.39187L60.5387 6.55067C60.0666 5.96054 59.441 5.52384 58.6621 5.24058C57.8831 4.95732 57.0923 4.81569 56.2897 4.81569C54.9443 4.81569 53.6578 5.20517 52.4303 5.98414C51.2264 6.73951 50.2468 7.75453 49.4915 9.0292C48.7597 10.2803 48.3938 11.614 48.3938 13.0303C48.3938 14.1869 48.6299 15.3554 49.102 16.5356C49.5741 17.6923 50.117 18.6483 50.7307 19.4037C51.2028 19.9702 52.0054 20.4423 53.1385 20.82C54.2715 21.1977 55.4636 21.3865 56.7146 21.3865C57.6588 21.3865 58.4614 21.2567 59.1224 20.997C59.7833 20.7374 60.279 20.3833 60.6095 19.9348C60.8455 19.6043 61.1052 19.026 61.3885 18.1998L61.955 16.7835C62.4271 15.8393 63.1234 15.3672 64.044 15.3672C64.6814 15.3672 65.2479 15.6032 65.7436 16.0753C66.2629 16.5238 66.5226 17.0786 66.5226 17.7395C66.5226 18.0228 66.4518 18.3414 66.3101 18.6955L65.9915 19.5807C65.7554 20.218 65.5194 20.7846 65.2833 21.2803C65.0709 21.7524 64.7876 22.2481 64.4335 22.7674C63.5601 23.9713 62.3681 24.8328 60.8573 25.3522C59.3466 25.8715 57.7297 26.1311 56.0065 26.1311Z" fill="#FF7143"/>
<path d="M76.9256 25.7414C76.0758 25.7414 75.1552 25.5762 74.1638 25.2457C72.9364 24.7736 71.9095 24.0773 71.0834 23.1567C70.2808 22.2125 69.7851 21.1856 69.5962 20.0762C69.4546 19.3444 69.3838 18.6363 69.3838 17.9517C69.3838 16.3702 69.6907 14.8831 70.3044 13.4904C71.1542 11.5311 72.3462 9.9496 73.8806 8.74574C75.4149 7.54187 77.1617 6.93994 79.1209 6.93994C79.8291 6.93994 80.5962 7.03436 81.4224 7.2232C81.9653 7.36483 82.4964 7.61269 83.0158 7.96677H83.1928L83.5469 7.93136C84.137 7.93136 84.6563 8.1438 85.1048 8.5687C85.5769 8.99359 85.8484 9.5129 85.9192 10.1266L86.167 12.5698C86.2143 13.6084 86.2733 15.3788 86.3441 17.8809L86.4149 19.7929C86.4621 20.9732 86.4857 21.7522 86.4857 22.1299C86.5093 22.4839 86.4975 22.8262 86.4503 23.1567C86.3559 23.8412 86.0962 24.4314 85.6713 24.9271C85.2701 25.3992 84.7389 25.647 84.078 25.6706C83.5351 25.6942 83.0394 25.5644 82.5909 25.2811C82.166 24.9743 81.8591 24.4314 81.6703 23.6524C81.1273 24.3133 80.4664 24.7972 79.6874 25.1041C78.7668 25.4818 77.8462 25.6942 76.9256 25.7414ZM76.961 20.749C77.6692 20.749 78.401 20.5247 79.1563 20.0762C79.3452 19.9582 79.5576 19.7811 79.7937 19.5451L80.3248 19.0494L80.9267 18.1996C81.0683 18.0344 81.2336 17.9163 81.4224 17.8455C81.4224 15.8627 81.3634 14.1867 81.2454 12.8176L80.8913 12.5698L80.3956 12.1803L80.0769 11.9678C79.6992 11.8734 79.4042 11.8262 79.1917 11.8262C78.3419 11.8262 77.5158 12.1567 76.7132 12.8176C75.9342 13.4786 75.3087 14.3992 74.8366 15.5794C74.4589 16.5 74.2701 17.3262 74.2701 18.058C74.2701 18.6953 74.4117 19.2264 74.6949 19.6513C75.0018 20.0762 75.4267 20.3831 75.9696 20.5719C76.3237 20.6899 76.6542 20.749 76.961 20.749Z" fill="#FF7143"/>
<path d="M97.2726 25.7769C96.8005 25.7769 96.3402 25.6235 95.8917 25.3166C95.632 25.2222 95.3842 25.1042 95.1481 24.9625L94.2275 24.4314C93.2833 23.8885 92.5752 23.381 92.1031 22.9089C91.7018 22.3896 91.4539 21.8821 91.3595 21.3864C91.2651 20.8671 91.2061 20.1117 91.1825 19.1203V18.4121C91.1589 17.7276 91.1471 16.1342 91.1471 13.6321C91.1471 12.6171 91.1589 11.8499 91.1825 11.3306H90.5097C89.9196 11.3306 89.4003 11.1299 88.9518 10.7286C88.5269 10.3038 88.3145 9.77264 88.3145 9.1353C88.3145 8.47436 88.5387 7.93144 88.9872 7.50654C89.4357 7.05805 89.955 6.8338 90.5451 6.8338H91.1825L91.2179 5.31127V4.21363C91.2415 3.45826 91.4893 2.87993 91.9614 2.47865C92.4572 2.05376 93.0237 1.84131 93.661 1.84131C94.322 1.84131 94.9003 2.06556 95.396 2.51406C95.9153 2.96255 96.175 3.57629 96.175 4.35526L96.1042 6.76298H97.4142C98.264 6.76298 98.9014 6.98723 99.3263 7.43573C99.7511 7.88423 99.9636 8.45075 99.9636 9.1353C99.9636 9.79624 99.7393 10.3628 99.2908 10.8349C98.8423 11.2834 98.1814 11.5076 97.308 11.5076H95.9979C95.9979 12.4754 95.9861 13.1954 95.9625 13.6675C95.9389 14.1632 95.9271 14.8714 95.9271 15.792C95.9271 17.3027 95.9743 18.6128 96.0687 19.7222C96.1632 19.8166 96.2222 19.8638 96.2458 19.8638L96.5999 20.1117L96.8831 20.2533L97.2018 20.4304L97.4851 20.572C97.9099 20.7608 98.2758 20.9733 98.5827 21.2093C99.3145 21.705 99.6803 22.366 99.6803 23.1922C99.6803 23.8531 99.4443 24.455 98.9722 24.998C98.5001 25.5173 97.9336 25.7769 97.2726 25.7769Z" fill="#FF7143"/>
<path d="M120.065 25.7768C119.38 25.7768 118.708 25.4463 118.047 24.7854L113.585 20.6427C111.036 18.353 108.888 15.9807 107.141 13.5258C105.394 11.0472 104.521 8.79292 104.521 6.76287C104.521 5.46459 104.852 4.29614 105.512 3.25751C106.15 2.21888 107 1.41631 108.062 0.849785C109.148 0.283262 110.316 0 111.567 0C113.22 0 114.541 0.448498 115.533 1.34549C116.548 2.21888 117.055 3.36373 117.055 4.78004C117.055 5.79506 116.784 6.75107 116.241 7.64807C115.698 8.49785 115.061 9.27682 114.329 9.98498C113.621 10.6695 112.393 11.7318 110.647 13.1717C109.301 14.2811 108.357 15.2253 107.814 16.0043C107.271 16.7833 107 17.5386 107 18.2704C107 19.0494 107.236 19.6749 107.708 20.147C108.18 20.5955 108.805 20.8197 109.584 20.8197C110.529 20.8197 111.308 20.5955 111.921 20.147C112.559 19.6985 113.22 18.9667 113.904 17.9517C114.164 17.574 114.447 17.1491 114.754 16.677C115.061 16.2049 115.32 15.7564 115.533 15.3315L115.993 14.3401C116.465 13.3251 117.221 12.8058 118.259 12.7822C118.92 12.7586 119.487 13.0064 119.959 13.5258C120.455 14.0215 120.702 14.6234 120.702 15.3315C120.702 15.8981 120.502 16.5826 120.1 17.3852C119.699 18.1878 119.038 19.2736 118.118 20.6427C115.875 24.0182 113.031 25.706 109.584 25.706C108.144 25.706 106.858 25.4227 105.725 24.8562C104.545 24.2661 103.624 23.4399 102.963 22.3777C102.302 21.3154 101.972 20.0644 101.972 18.6245C101.972 16.9957 102.385 15.5558 103.211 14.3047C104.061 13.03 105.477 11.6491 107.46 10.162L108.38 9.48927C109.962 8.30901 110.989 7.50644 111.461 7.08154C111.909 6.65665 112.134 6.23176 112.134 5.80687C112.134 5.12232 111.756 4.78004 111.001 4.78004C110.481 4.78004 110.08 4.94528 109.797 5.27575C109.537 5.60622 109.407 6.04292 109.407 6.58584C109.407 7.48283 109.856 8.61588 110.753 9.98498C111.65 11.3305 112.771 12.7468 114.117 14.2339L114.825 15.0129C115.769 16.0751 116.489 16.8187 116.985 17.2436L121.729 21.28C122.343 21.823 122.65 22.4485 122.65 23.1566C122.65 23.8884 122.402 24.5139 121.906 25.0333C121.411 25.529 120.797 25.7768 120.065 25.7768Z" fill="#FF9537"/>
<path d="M130.241 25.706C130.076 25.706 129.923 25.6942 129.781 25.6705C129.12 25.6469 128.554 25.3991 128.082 24.927C127.61 24.4313 127.373 23.853 127.373 23.192C127.397 22.1298 127.385 18.7424 127.338 13.03C127.291 7.29394 127.314 3.88299 127.409 2.79716C127.432 2.15982 127.692 1.6051 128.188 1.133C128.707 0.660892 129.309 0.436642 129.994 0.460247C130.206 0.389433 130.419 0.354025 130.631 0.354025C131.552 0.259604 132.224 0.200592 132.649 0.176987C133.098 0.153381 133.818 0.129775 134.809 0.10617C135.824 0.0589603 136.674 0.0943686 137.358 0.212394C138.067 0.33042 138.857 0.495655 139.731 0.708102C140.628 0.896943 141.466 1.20381 142.245 1.6287C143.024 2.05359 143.732 2.56111 144.369 3.15124C145.597 4.26068 146.517 5.59437 147.131 7.15231C147.768 8.71025 148.075 10.4098 148.052 12.251C148.028 14.0686 147.757 15.7564 147.237 17.3143C146.741 18.8487 145.963 20.2532 144.9 21.5278C143.838 22.7789 142.599 23.7585 141.182 24.4667C139.695 25.1748 137.736 25.5879 135.305 25.706C134.809 25.7296 133.924 25.7296 132.649 25.706C131.375 25.706 130.572 25.706 130.241 25.706ZM135.092 20.8551C136.839 20.7371 138.137 20.4774 138.987 20.0761C140.404 19.3916 141.489 18.2467 142.245 16.6416C143 15.0364 143.272 13.2542 143.059 11.295C142.847 9.31218 142.174 7.80145 141.041 6.76282C140.12 5.93664 138.952 5.41733 137.535 5.20488C136.143 4.99244 134.396 4.96883 132.295 5.13407C132.272 7.37656 132.26 9.09973 132.26 10.3036C132.26 11.5075 132.272 13.2896 132.295 15.6502C132.319 18.0107 132.331 19.7339 132.331 20.8197C133.487 20.8669 134.408 20.8787 135.092 20.8551Z" fill="#FF7143"/>
<path d="M158.131 25.954C156.078 25.5527 154.472 24.6085 153.316 23.1213C152.136 21.6342 151.427 19.9346 151.191 18.0226C150.979 16.2522 151.18 14.4819 151.793 12.7115C152.407 10.9175 153.398 9.44216 154.767 8.2855C155.31 7.8134 156.007 7.44752 156.857 7.18787C156.88 7.18787 157.128 7.11705 157.6 6.97542C157.789 6.92821 157.931 6.881 158.025 6.83379C158.686 6.57413 159.347 6.59774 160.008 6.9046C162.227 7.25868 163.714 7.62456 164.469 8.00224C165.343 8.42714 166.086 9.01726 166.7 9.77263C167.314 10.528 167.739 11.3306 167.975 12.1804C168.234 13.0065 168.423 13.8917 168.541 14.8359C168.659 15.7565 168.647 16.5945 168.506 17.3499C168.388 18.5065 168.128 19.6278 167.727 20.7136C167.325 21.7758 166.712 22.7909 165.886 23.7587C165.059 24.7265 164.092 25.411 162.982 25.8123C161.637 26.2844 160.02 26.3316 158.131 25.954ZM159.052 21.1385C160.067 21.3273 160.834 21.3273 161.353 21.1385C161.802 20.9733 162.25 20.513 162.699 19.7576C163.171 18.9786 163.466 17.999 163.584 16.8188C163.726 15.6385 163.655 14.6707 163.372 13.9153C163.088 13.1364 162.746 12.6525 162.345 12.4636C162.038 12.322 161.755 12.2276 161.495 12.1804C161.235 12.1095 160.858 12.0505 160.362 12.0033C159.89 11.9325 159.418 11.8381 158.946 11.7201C158.544 11.8381 158.332 11.8971 158.308 11.8971L157.954 12.0387C157.293 12.6052 156.786 13.3842 156.432 14.3756C156.078 15.367 155.971 16.3939 156.113 17.4561C156.231 18.4711 156.538 19.2973 157.034 19.9346C157.553 20.572 158.226 20.9733 159.052 21.1385Z" fill="#FF7143"/>
<path d="M179.859 33C178.726 33 177.711 32.7994 176.814 32.3981C175.941 32.0204 175.056 31.4303 174.159 30.6277C173.639 30.1792 173.262 29.7543 173.026 29.353C172.813 28.9517 172.707 28.5387 172.707 28.1138C172.707 27.4292 172.931 26.8627 173.38 26.4142C173.828 25.9657 174.383 25.7414 175.044 25.7414C175.823 25.7414 176.437 26.0483 176.885 26.662C177.404 27.3466 177.924 27.8305 178.443 28.1138C178.962 28.4206 179.517 28.5741 180.107 28.5741C181.24 28.5741 182.137 28.102 182.798 27.1577C183.459 26.2135 183.896 25.0215 184.108 23.5816C183.636 24.3369 182.952 24.8917 182.055 25.2457C181.181 25.5998 180.237 25.7768 179.222 25.7768C177.853 25.7768 176.59 25.411 175.433 24.6792C174.277 23.9238 173.344 22.8734 172.636 21.5279C171.952 20.1588 171.609 18.6009 171.609 16.8541C171.609 14.9185 171.963 13.2071 172.672 11.72C173.38 10.2093 174.383 9.0408 175.681 8.21462C176.98 7.36484 178.467 6.93994 180.143 6.93994C181.37 6.93994 182.68 7.31762 184.073 8.07299C184.215 7.74252 184.474 7.48286 184.852 7.29402C185.253 7.08157 185.737 6.97535 186.304 6.97535C186.941 6.97535 187.448 7.1996 187.826 7.6481C188.227 8.07299 188.44 8.67492 188.463 9.45389C188.534 13.8917 188.534 18.5065 188.463 23.2983C188.416 24.7146 188.098 26.0601 187.507 27.3348C186.941 28.6331 186.15 29.8133 185.135 30.8756C184.427 31.5837 183.648 32.1148 182.798 32.4689C181.948 32.823 180.969 33 179.859 33ZM179.789 21.1738C180.756 21.1738 181.677 20.7372 182.55 19.8638C182.81 19.6041 183.034 19.2972 183.223 18.9432C183.436 18.5891 183.601 18.2704 183.719 17.9872C183.719 15.0129 183.707 13.2543 183.683 12.7114C183.14 12.2865 182.609 11.9914 182.09 11.8262C181.571 11.6374 180.922 11.5429 180.143 11.5429C178.821 11.5429 177.841 12.015 177.204 12.9593C176.59 13.9035 176.283 15.2017 176.283 16.8541C176.283 18.1524 176.602 19.2028 177.239 20.0054C177.877 20.7844 178.726 21.1738 179.789 21.1738Z" fill="#FF7143"/>
<path d="M19.8085 19.6873L19.7319 19.432L19.5787 19.0233L19.4766 18.7678L19.1956 18.257L18.8124 17.7717L18.3016 17.3121L17.7142 16.7756L17.2289 16.316L16.7693 15.805L16.3861 15.2943L16.0285 14.758L15.6454 14.0429L15.4154 13.5575L15.1345 13.0211L14.7769 12.4337L14.3684 11.8973L14.0875 11.6163L13.8065 11.361L13.4233 11.08L12.9636 10.8757L12.3762 10.6713L11.7887 10.5947H11.1758L10.5882 10.6713L9.7455 10.9778L8.9281 11.5397L8.39165 12.0761L8.05975 12.5869L7.72766 13.1743L7.29349 14.0683L6.8848 14.86L6.42515 15.473L5.86326 16.1882L4.20301 17.7205L4.0498 17.8483L3.66676 18.3847L3.36032 18.9976L3.18145 19.7639L3.07937 20.4535L3.05371 21.2198L3.13032 21.7306L3.36032 22.4457L3.69223 23.1097L4.04979 23.5695L4.50962 24.0292L5.1225 24.4379L5.83765 24.77L6.37409 24.8977L7.19149 24.9232L7.98321 24.7443L8.46853 24.5145L8.6727 24.3613L9.13253 24.1058L9.5667 23.8505L9.94974 23.6207L10.3584 23.4418L10.6905 23.2886L11.0736 23.1863L11.4822 23.1608L11.9676 23.2374L12.3251 23.3141L12.9125 23.595L13.6277 23.9526L14.2152 24.3358L14.7515 24.6422L15.288 24.872L15.7987 24.9743L16.2329 24.9998L16.5905 24.9743L17.1524 24.8209L17.8675 24.489L18.3783 24.1314L18.9147 23.595L19.2978 23.0842L19.6298 22.3946L19.8342 21.7306L19.9108 21.1687V20.5813L19.8851 20.2492L19.8085 19.6873Z" fill="#FF9537"/>
<path d="M15.4395 2.02119C16.9544 2.18154 17.9973 4.06272 17.7689 6.22306C17.5404 8.3834 16.1268 10.0048 14.6118 9.84447C13.0969 9.68431 12.054 7.80294 12.2824 5.6426C12.5109 3.48226 13.9245 1.86083 15.4395 2.02119Z" fill="#FF9537"/>
<path d="M10.676 5.63232C10.9046 7.79267 9.86168 9.67402 8.34661 9.83419C6.83154 9.99454 5.41822 8.37313 5.18963 6.21279C4.96105 4.05244 6.00397 2.17127 7.51904 2.01091C9.03411 1.85075 10.4476 3.47217 10.676 5.63232Z" fill="#FF9537"/>
<path d="M20.988 8.21196C22.4751 8.54316 23.3002 10.5195 22.8311 12.626C22.3618 14.7326 20.776 16.1719 19.2889 15.8407C17.802 15.5095 16.9768 13.5332 17.4461 11.4266C17.9152 9.32007 19.5012 7.88076 20.988 8.21196Z" fill="#FF9537"/>
<path d="M5.51656 11.4261C5.98565 13.5327 5.1606 15.509 3.67352 15.8402C2.18659 16.1714 0.600827 14.732 0.13156 12.6255C-0.337523 10.5189 0.487521 8.54264 1.97442 8.21147C3.46149 7.88028 5.0473 9.31962 5.51656 11.4261Z" fill="#FF9537"/>
</svg>
