<svg width="23" height="23" viewBox="0 0 23 23" fill="none" xmlns="http://www.w3.org/2000/svg">
<path d="M19.8085 17.6875L19.7319 17.4322L19.5787 17.0235L19.4766 16.7681L19.1956 16.2573L18.8124 15.772L18.3016 15.3123L17.7142 14.7759L17.2289 14.3162L16.7693 13.8053L16.3861 13.2945L16.0285 12.7582L15.6454 12.0431L15.4154 11.5578L15.1345 11.0213L14.7769 10.4339L14.3684 9.8975L14.0875 9.61654L13.8065 9.36124L13.4233 9.08028L12.9636 8.87593L12.3762 8.67158L11.7887 8.59497H11.1758L10.5882 8.67158L9.7455 8.97801L8.9281 9.53991L8.39165 10.0764L8.05975 10.5871L7.72766 11.1745L7.29349 12.0685L6.8848 12.8603L6.42515 13.4733L5.86326 14.1884L4.20301 15.7208L4.0498 15.8485L3.66676 16.385L3.36032 16.9979L3.18145 17.7641L3.07937 18.4538L3.05371 19.22L3.13032 19.7308L3.36032 20.446L3.69223 21.11L4.04979 21.5698L4.50962 22.0294L5.1225 22.4381L5.83765 22.7702L6.37409 22.898L7.19149 22.9234L7.98321 22.7446L8.46853 22.5147L8.6727 22.3615L9.13253 22.106L9.5667 21.8507L9.94974 21.6209L10.3584 21.442L10.6905 21.2888L11.0736 21.1866L11.4822 21.1611L11.9676 21.2377L12.3251 21.3143L12.9125 21.5953L13.6277 21.9528L14.2152 22.336L14.7515 22.6425L15.288 22.8723L15.7987 22.9746L16.2329 23L16.5905 22.9746L17.1524 22.8212L17.8675 22.4893L18.3783 22.1317L18.9147 21.5952L19.2978 21.0845L19.6298 20.3948L19.8342 19.7308L19.9108 19.1689V18.5815L19.8851 18.2494L19.8085 17.6875Z" fill="#FF9537"/>
<path d="M15.4395 0.0211941C16.9544 0.181535 17.9973 2.06272 17.7689 4.22306C17.5404 6.3834 16.1268 8.00483 14.6118 7.84447C13.0969 7.68431 12.054 5.80294 12.2824 3.6426C12.5109 1.48226 13.9245 -0.139166 15.4395 0.0211941Z" fill="#FF9537"/>
<path d="M10.676 3.63232C10.9046 5.79267 9.86168 7.67402 8.34661 7.83419C6.83154 7.99454 5.41822 6.37313 5.18963 4.21279C4.96105 2.05244 6.00397 0.171274 7.51904 0.0109146C9.03411 -0.149249 10.4476 1.47217 10.676 3.63232Z" fill="#FF9537"/>
<path d="M20.988 6.21196C22.4751 6.54316 23.3002 8.51948 22.8311 10.626C22.3618 12.7326 20.776 14.1719 19.2889 13.8407C17.802 13.5095 16.9768 11.5332 17.4461 9.42664C17.9152 7.32007 19.5012 5.88076 20.988 6.21196Z" fill="#FF9537"/>
<path d="M5.51656 9.4259C5.98565 11.5325 5.1606 13.5088 3.67352 13.8399C2.18659 14.1711 0.600827 12.7318 0.13156 10.6253C-0.337523 8.5187 0.487521 6.54239 1.97442 6.21123C3.46149 5.88003 5.0473 7.31938 5.51656 9.4259Z" fill="#FF9537"/>
</svg>
