<svg width="17" height="18" viewBox="0 0 17 18" fill="none" xmlns="http://www.w3.org/2000/svg">
<path d="M14.6659 13.0949L14.6092 12.9058L14.4958 12.6033L14.4202 12.4141L14.2122 12.036L13.9285 11.6767L13.5503 11.3364L13.1155 10.9392L12.7562 10.599L12.4159 10.2207L12.1322 9.84253L11.8674 9.44551L11.5839 8.91607L11.4136 8.55677L11.2056 8.15961L10.9409 7.72474L10.6384 7.32759L10.4304 7.11959L10.2224 6.93058L9.93871 6.72257L9.59842 6.57129L9.16355 6.42L8.72855 6.36328H8.2748L7.8398 6.42L7.21591 6.64686L6.61076 7.06286L6.2136 7.46001L5.96788 7.83815L5.72202 8.27302L5.40059 8.9349L5.09802 9.52104L4.75773 9.97488L4.34173 10.5043L3.11259 11.6388L2.99916 11.7334L2.71558 12.1305L2.48872 12.5843L2.35629 13.1516L2.28071 13.6621L2.26172 14.2294L2.31843 14.6076L2.48872 15.137L2.73444 15.6286L2.99916 15.969L3.33958 16.3093L3.79333 16.6119L4.32277 16.8578L4.71993 16.9523L5.32508 16.9712L5.91122 16.8388L6.27052 16.6686L6.42167 16.5552L6.7621 16.366L7.08353 16.177L7.36711 16.0069L7.66968 15.8745L7.91554 15.761L8.19912 15.6853L8.50169 15.6665L8.86099 15.7232L9.12571 15.7799L9.56058 15.9879L10.09 16.2526L10.525 16.5363L10.922 16.7632L11.3192 16.9333L11.6973 17.009L12.0188 17.0279L12.2835 17.009L12.6995 16.8955L13.2289 16.6498L13.6071 16.385L14.0042 15.9879L14.2878 15.6097L14.5337 15.0992L14.685 14.6076L14.7417 14.1916V13.7567L14.7227 13.5109L14.6659 13.0949Z" fill="#519874"/>
<path d="M11.4309 0.0159119C12.5524 0.134619 13.3246 1.52734 13.1555 3.12672C12.9862 4.7261 11.9398 5.92651 10.8181 5.80779C9.69657 5.68921 8.92445 4.29636 9.09355 2.69698C9.26277 1.0976 10.3092 -0.102808 11.4309 0.0159119Z" fill="#519874"/>
<path d="M7.90341 2.68915C8.07264 4.28853 7.30053 5.68137 6.17886 5.79996C5.05719 5.91866 4.01086 4.71827 3.84162 3.11889C3.6724 1.5195 4.44451 0.126801 5.56618 0.00808051C6.68785 -0.110495 7.73431 1.0899 7.90341 2.68915Z" fill="#519874"/>
<path d="M15.5381 4.59858C16.639 4.84378 17.2498 6.30692 16.9025 7.86646C16.5551 9.42604 15.3811 10.4916 14.2802 10.2464C13.1793 10.0012 12.5684 8.53806 12.9158 6.97852C13.2631 5.41895 14.4373 4.35337 15.5381 4.59858Z" fill="#519874"/>
<path d="M4.08412 6.97852C4.4314 8.5381 3.82059 10.0012 2.71965 10.2464C1.61882 10.4916 0.444815 9.426 0.0973993 7.86646C-0.249882 6.30689 0.360931 4.84375 1.46174 4.59858C2.56267 4.35338 3.73671 5.41898 4.08412 6.97852Z" fill="#519874"/>
</svg>
