<svg width="18" height="15" viewBox="0 0 18 15" fill="none" xmlns="http://www.w3.org/2000/svg">
<path d="M3.4859 4.61542H13.7024L12.4523 1.58645H4.73579L3.48574 4.61542H3.4859ZM2.83688 5.04806L4.44749 1.15391H12.741L14.3516 5.04806H2.83688ZM10.2408 8.99043H6.94746C6.63492 8.99043 6.39457 9.23077 6.39457 9.54332V10.3366C6.39457 10.6251 6.63491 10.8895 6.94746 10.8895H10.2408C10.5533 10.8895 10.7937 10.6251 10.7937 10.3366V9.54332C10.7937 9.23078 10.5533 8.99043 10.2408 8.99043ZM10.2408 9.42307C10.3129 9.42307 10.361 9.4711 10.361 9.5433V10.3366C10.361 10.4087 10.313 10.4568 10.2408 10.4568H6.94746C6.87537 10.4568 6.82723 10.4088 6.82723 10.3366V9.5433C6.82723 9.47121 6.87526 9.42307 6.94746 9.42307H10.2408ZM13.0292 11.9712V13.5337C13.0292 14.351 13.6782 15 14.4955 15C15.2889 15 15.9619 14.351 15.9619 13.5337V11.9712H17.1879V6.56257C17.1879 5.57703 16.4427 4.75963 15.4811 4.61547L13.8464 0.769267C13.582 0.360566 13.1733 0.0721079 12.6685 0H4.49533C3.99047 0.0720918 3.60585 0.360566 3.34145 0.769267L1.70678 4.61547C0.745213 4.75965 0 5.57703 0 6.56257V11.9712H1.226V13.5337C1.226 14.351 1.8991 15 2.69231 15C3.50961 15 4.15863 14.351 4.15863 13.5337V11.9712H13.0292ZM12.6446 0.432594C13.0052 0.480621 13.2696 0.697001 13.4619 0.985484L15.1927 5.04812C16.0582 5.09614 16.7552 5.64914 16.7552 6.56257V11.5386H15.5052V13.5338C15.5052 14.1108 15.0484 14.5675 14.4956 14.5675C13.9186 14.5675 13.4619 14.1108 13.4619 13.5338V11.5386H3.72625V13.5338C3.72625 14.1108 3.26953 14.5675 2.69258 14.5675C2.13969 14.5675 1.65891 14.1108 1.65891 13.5338V11.5386H0.432915V6.56257C0.432915 5.64911 1.13007 5.09625 1.9954 5.04812L3.70217 0.985484C3.91855 0.696998 4.18296 0.480621 4.54352 0.432594H12.6446ZM14.7119 6.87489H12.9571C12.6207 6.87489 12.3802 7.1393 12.3802 7.45184V8.99037C12.3802 9.32686 12.6205 9.56732 12.9571 9.56732H14.7119C15.0245 9.56732 15.2889 9.32697 15.2889 8.99037V7.45184C15.2889 7.1393 15.0245 6.87489 14.7119 6.87489ZM12.9571 7.30754H14.7119C14.784 7.30754 14.8561 7.37963 14.8561 7.45173V8.99026C14.8561 9.08642 14.784 9.13444 14.7119 9.13444H12.9571C12.861 9.13444 12.813 9.08642 12.813 8.99026V7.45173C12.813 7.37963 12.861 7.30754 12.9571 7.30754ZM2.47631 6.87489H4.23112C4.54366 6.87489 4.80806 7.1393 4.80806 7.45184V8.99037C4.80806 9.32686 4.54365 9.56732 4.23112 9.56732H2.47631C2.16377 9.56732 1.89937 9.32697 1.89937 8.99037V7.45184C1.89937 7.1393 2.16378 6.87489 2.47631 6.87489ZM4.23112 7.30754H2.47631C2.40422 7.30754 2.33213 7.37963 2.33213 7.45173V8.99026C2.33213 9.08642 2.40422 9.13444 2.47631 9.13444H4.23112C4.30321 9.13444 4.3753 9.08642 4.3753 8.99026V7.45173C4.3753 7.37963 4.30321 7.30754 4.23112 7.30754Z" fill="#FF7143"/>
</svg>
