<svg width="63" height="56" viewBox="0 0 63 56" fill="none" xmlns="http://www.w3.org/2000/svg">
<path d="M29.796 54.8424C30.3324 55.3789 30.9447 55.6086 31.5576 55.6086C32.1704 55.6086 32.7832 55.3789 33.2427 54.9194L57.83 30.3321C64.7233 23.4387 64.7233 12.1788 57.83 5.2852C54.4596 1.91484 50.0171 0.0769514 45.2682 0.0769514C40.5194 0.0769514 36.0769 1.91539 32.7065 5.2852L31.4809 6.51086L30.1788 5.2088C26.8849 1.9149 22.4427 0 17.6935 0C12.9447 0 8.50215 1.83844 5.20825 5.20825C1.83789 8.57861 0 13.0212 0 17.6935C0 22.4423 1.83844 26.8849 5.20825 30.1788L29.796 54.8424ZM8.57893 8.57848C10.9538 6.12714 14.2472 4.82515 17.694 4.82515C21.1408 4.82515 24.4346 6.2036 26.8854 8.65494L29.8726 11.6422C30.3321 12.1017 30.9449 12.3314 31.5577 12.3314C32.1706 12.3314 32.7834 12.1017 33.2428 11.6422L36.1536 8.7314C38.605 6.28006 41.8218 4.90161 45.345 4.90161C48.7917 4.90161 52.0087 6.28006 54.46 8.65494C59.5155 13.7104 59.5155 21.9059 54.46 26.9614L31.4813 49.8636L8.50248 26.8848C6.05113 24.4334 4.67268 21.2165 4.67268 17.6934C4.74908 14.2462 6.12814 11.0291 8.57893 8.57835V8.57848Z" fill="#0A0335"/>
</svg>
