<svg width="71" height="70" viewBox="0 0 71 70" fill="none" xmlns="http://www.w3.org/2000/svg">
<path d="M18.7893 0.0372793C18.485 0.0372793 18.0291 0.188897 17.7248 0.493199C14.2291 3.38147 10.8851 6.26947 7.38938 9.15775C6.17324 10.2223 4.80551 11.1341 3.58938 12.3503C0.85392 14.9342 -0.362351 18.7343 0.0936493 22.3826C1.15816 30.4386 9.82165 35.3031 17.1174 31.9588C20.7656 30.2868 23.5014 26.7911 24.1099 22.8383C24.4142 20.5587 23.9583 18.5823 23.654 16.3028C22.7422 11.5911 21.982 6.72656 21.0701 2.01456C21.0701 1.71026 21.0701 1.40702 20.9185 1.10272C20.7648 0.189825 19.7013 -0.114477 18.7895 0.0371426L18.7893 0.0372793ZM18.3334 26.333C16.0539 28.9169 12.1012 29.9813 8.9097 28.6126C9.06132 28.6126 8.45379 28.3083 8.45379 28.1567C8.14949 28.0051 7.84625 27.8524 7.54195 27.7008C6.93441 27.2448 6.32581 26.7889 5.86989 26.1803C4.95806 24.9642 4.19784 23.5965 4.04622 22.076C3.43868 17.3643 6.93449 14.7803 10.1257 12.0438C12.7095 9.91582 15.1417 7.78777 17.7257 5.65976C18.1816 8.39522 18.6375 11.1318 19.2461 14.02C20.0053 18.1254 21.5246 22.8371 18.3332 26.3329L18.3334 26.333Z" fill="#0A0335"/>
<path d="M39.3091 32.2615C39.0049 31.0453 38.093 30.741 37.0296 31.0453C36.7253 31.0453 36.2694 31.1969 35.9651 31.5012C31.8608 34.8452 27.7576 38.341 23.8048 41.6852C22.2844 42.9014 20.6122 44.2691 19.2445 45.637C16.052 48.6767 14.5328 53.0852 14.9885 57.3412C16.053 66.9175 26.3885 72.693 35.0531 68.5895C39.3091 66.6132 42.3488 62.51 43.1091 57.797C43.4134 55.2131 42.9575 52.781 42.5015 50.197C41.437 44.4207 40.5252 38.797 39.4618 33.0207C39.4618 32.8691 39.4618 32.5648 39.3091 32.2615L39.3091 32.2615ZM36.5737 62.8135C33.6854 65.8532 29.4297 66.7652 25.478 65.3973C24.1102 64.9414 22.2854 63.7253 21.222 62.3576C20.1574 60.9898 19.3983 59.3179 19.094 57.6459C18.4865 53.9976 19.8542 50.3501 22.7423 47.9179C23.9584 46.8533 25.1745 45.9415 26.3906 44.8781C29.5831 42.1427 32.926 39.4061 36.1186 36.6707C36.7261 40.3189 37.3347 43.8147 37.9422 47.4632C38.853 52.6299 40.6777 58.2536 36.5734 62.8139L36.5737 62.8135Z" fill="#0A0335"/>
<path d="M67.8849 7.33372C67.5806 6.11758 66.6688 5.81328 65.6054 6.11758C65.3011 6.11758 64.8452 6.2692 64.5409 6.5735C61.5011 9.15737 58.4614 11.5895 55.4203 14.1735C54.3558 15.0853 53.1408 15.9972 52.0763 17.0618C49.7968 19.494 48.8838 22.838 49.4925 26.0295C49.9484 29.2221 52.0763 31.9575 54.813 33.4778C55.1173 33.6294 55.4205 33.7821 55.7248 33.9337H55.8765C56.7883 34.238 57.7001 34.5412 58.6119 34.6939C60.4356 34.8455 62.1076 34.6939 63.7796 33.9337C66.9722 32.5659 69.5559 29.6777 70.1636 26.3337C70.6196 24.2058 70.1636 22.382 69.8593 20.2542C69.0991 16.3025 68.4916 12.1982 67.7314 8.24677C68.0367 7.94247 68.0367 7.63818 67.8851 7.33388L67.8849 7.33372ZM64.9967 28.6143C64.0848 29.5261 63.0204 30.2863 61.8041 30.5906C61.1966 30.7422 60.4364 30.8949 59.8278 30.7422C59.3719 30.7422 59.0676 30.5906 58.6117 30.5906C58.4601 30.5906 58.3074 30.439 58.1558 30.439C58.7633 30.8949 58.7633 30.8949 58.1558 30.439C55.7235 29.3745 53.8998 27.7035 53.5955 25.1184C52.988 21.0142 56.0277 18.8862 58.7632 16.6067C60.7395 14.9346 62.7149 13.2627 64.6912 11.5907C64.9955 13.7186 65.4514 15.8467 65.7557 17.9747C66.3643 21.6222 67.7331 25.5747 64.9966 28.6144L64.9967 28.6143Z" fill="#0A0335"/>
</svg>
