<svg width="16" height="18" viewBox="0 0 16 18" fill="none" xmlns="http://www.w3.org/2000/svg">
<path d="M13.2529 15.7366H2.74707C2.17576 15.7366 1.71094 15.2717 1.71094 14.7005V1.03533C1.71094 0.464019 2.17579 0 2.74707 0H13.2529C13.8242 0 14.2883 0.464854 14.2883 1.03533V14.7005C14.2883 15.2718 13.8242 15.7366 13.2529 15.7366ZM2.74707 0.69132C2.55713 0.69132 2.40304 0.845547 2.40304 1.03466V14.6998C2.40304 14.8896 2.55713 15.0438 2.74707 15.0438H13.2529C13.4427 15.0438 13.5961 14.8896 13.5961 14.6998V1.03536C13.5961 0.846242 13.442 0.69215 13.2529 0.69215H2.74707V0.69132Z" fill="#FF7143"/>
<path d="M5.50542 17.2999H2.90718C2.71562 17.2999 2.56152 17.145 2.56152 16.9543V15.3906C2.56152 15.2 2.71643 15.0449 2.90718 15.0449H5.50542C5.69685 15.0449 5.85189 15.2 5.85189 15.3906V16.9543C5.85189 17.145 5.69685 17.2999 5.50542 17.2999ZM3.25285 16.608H5.15898V15.7362H3.25285V16.608Z" fill="#FF7143"/>
<path d="M13.0923 17.2999H10.4941C10.3025 17.2999 10.1484 17.145 10.1484 16.9543V15.3906C10.1484 15.2 10.3033 15.0449 10.4941 15.0449H13.0923C13.2838 15.0449 13.438 15.2 13.438 15.3906V16.9543C13.438 17.145 13.2831 17.2999 13.0923 17.2999ZM10.8398 16.608H12.7459V15.7362H10.8398V16.608Z" fill="#FF7143"/>
<path d="M15.6527 7.38533C15.4612 7.38533 15.3071 7.23043 15.3071 7.03886V4.40086L13.6957 2.76492C13.5623 2.62902 13.5638 2.40975 13.6997 2.27549C13.8364 2.14109 14.0548 2.14272 14.1891 2.27943L15.8999 4.0164C15.9634 4.08157 15.9992 4.16805 15.9992 4.25955V7.03891C15.9992 7.23047 15.8442 7.38538 15.6528 7.38538L15.6527 7.38533Z" fill="#FF7143"/>
<path d="M0.345653 7.38503C0.154092 7.38503 0 7.23012 0 7.03856V4.2592C0 4.16865 0.0357044 4.08121 0.0993798 4.01605L1.81001 2.27908C1.94428 2.14318 2.16204 2.14087 2.29943 2.27514C2.43533 2.40941 2.43696 2.62784 2.3035 2.76457L0.69214 4.40064V7.03851C0.69214 7.23007 0.537099 7.38498 0.34567 7.38498L0.345653 7.38503Z" fill="#FF7143"/>
<path d="M13.9426 2.86872H2.05659C1.86503 2.86872 1.71094 2.71382 1.71094 2.52225C1.71094 2.33082 1.86584 2.17578 2.05659 2.17578H13.9426C14.134 2.17578 14.2882 2.33082 14.2882 2.52225C14.2882 2.71381 14.134 2.86872 13.9426 2.86872Z" fill="#FF7143"/>
<path d="M13.9426 9.73232H2.05659C1.86503 9.73232 1.71094 9.57742 1.71094 9.38667C1.71094 9.19592 1.86584 9.04102 2.05659 9.04102H13.9426C14.134 9.04102 14.2882 9.19592 14.2882 9.38667C14.2882 9.57742 14.134 9.73232 13.9426 9.73232Z" fill="#FF7143"/>
<path d="M7.99995 9.7314C7.80852 9.7314 7.6543 9.5765 7.6543 9.38575V2.52225C7.6543 2.33069 7.80934 2.17578 7.99995 2.17578C8.19151 2.17578 8.34642 2.33069 8.34642 2.52225V9.38575C8.3456 9.5765 8.19152 9.7314 7.99995 9.7314Z" fill="#FF7143"/>
<path d="M5.50624 11.8718H4.20712C4.01556 11.8718 3.86133 11.7168 3.86133 11.5262C3.86133 11.3346 4.01637 11.1797 4.20712 11.1797H5.50624C5.69766 11.1797 5.85257 11.3346 5.85257 11.5262C5.85257 11.7168 5.69766 11.8718 5.50624 11.8718Z" fill="#FF7143"/>
<path d="M11.7932 11.8718H10.494C10.3025 11.8718 10.1484 11.7169 10.1484 11.5262C10.1484 11.3347 10.3033 11.1797 10.494 11.1797H11.7932C11.9846 11.1797 12.1387 11.3347 12.1387 11.5262C12.1395 11.7169 11.9846 11.8718 11.7932 11.8718Z" fill="#FF7143"/>
</svg>
