<svg width="113" height="51" viewBox="0 0 113 51" fill="none" xmlns="http://www.w3.org/2000/svg">
<mask id="path-1-inside-1_171_449" fill="white">
<path d="M43.1667 38.5442L42.9997 37.9878L42.6658 37.0972L42.4433 36.5405L41.8311 35.4274L40.996 34.3698L39.8829 33.3681L38.6028 32.1991L37.5452 31.1974L36.5435 30.0839L35.7084 28.9708L34.9292 27.8022L34.0945 26.2437L33.5933 25.1861L32.981 24.0171L32.2018 22.737L31.3115 21.568L30.6993 20.9557L30.087 20.3994L29.2519 19.7871L28.2502 19.3418L26.9702 18.8964L25.6897 18.7295H24.3541L23.0736 18.8964L21.2372 19.5642L19.4559 20.7887L18.2869 21.9578L17.5636 23.0708L16.8399 24.3509L15.8937 26.2992L15.0031 28.0245L14.0014 29.3604L12.7769 30.9189L9.15888 34.2582L8.82499 34.5366L7.99026 35.7056L7.32247 37.0412L6.93267 38.7111L6.7102 40.214L6.6543 41.8839L6.82124 42.997L7.32247 44.5554L8.04577 46.0024L8.82498 47.0045L9.82704 48.0062L11.1627 48.8968L12.7211 49.6205L13.8902 49.8989L15.6714 49.9544L17.3968 49.5646L18.4544 49.0637L18.8993 48.7299L19.9014 48.1731L20.8475 47.6167L21.6823 47.1159L22.5729 46.7261L23.2966 46.3922L24.1313 46.1693L25.0219 46.1138L26.0796 46.2808L26.8588 46.4477L28.1388 47.06L29.6973 47.8392L30.9777 48.6743L32.1464 49.3421L33.3154 49.8429L34.4285 50.0658L35.3747 50.1213L36.1539 50.0658L37.3784 49.7315L38.9368 49.0082L40.0499 48.229L41.2189 47.06L42.0537 45.9469L42.7774 44.444L43.2227 42.997L43.3896 41.7725V40.4924L43.3337 39.7687L43.1667 38.5442Z"/>
<path d="M33.6458 0.0472786C36.9471 0.396698 39.2199 4.49623 38.7221 9.20409C38.224 13.9119 35.1436 17.4454 31.842 17.0959C28.5407 16.7469 26.2679 12.647 26.7657 7.93914C27.2638 3.23127 30.3441 -0.302181 33.6458 0.0472786Z"/>
<path d="M23.2658 7.91564C23.7639 12.6235 21.4911 16.7234 18.1895 17.0725C14.8878 17.4219 11.8078 13.8885 11.3097 9.18059C10.8116 4.47273 13.0843 0.373245 16.386 0.0237854C19.6877 -0.325247 22.768 3.20818 23.2658 7.91564Z"/>
<path d="M45.737 13.5359C48.9777 14.2577 50.7757 18.5645 49.7534 23.1551C48.7308 27.7458 45.275 30.8824 42.0343 30.1606C38.794 29.4388 36.9957 25.132 38.0183 20.5414C39.0405 15.9507 42.4968 12.8142 45.737 13.5359Z"/>
<path d="M12.0218 20.5414C13.0441 25.1321 11.2461 29.4389 8.00542 30.1606C4.76507 30.8823 1.30934 27.7457 0.2867 23.1551C-0.735539 18.5644 1.06242 14.2576 4.3027 13.5359C7.54335 12.8142 10.9992 15.9508 12.0218 20.5414Z"/>
<path d="M106.097 38.4817L105.93 37.9263L105.597 37.0371L105.375 36.4812L104.763 35.3699L103.929 34.314L102.818 33.314L101.54 32.1469L100.484 31.1468L99.4843 30.0351L98.6505 28.9239L97.8726 27.7571L97.0392 26.2012L96.5388 25.1453L95.9275 23.9782L95.1496 22.7002L94.2608 21.533L93.6495 20.9218L93.0382 20.3663L92.2045 19.755L91.2044 19.3104L89.9264 18.8658L88.6481 18.6991H87.3146L86.0362 18.8658L84.2028 19.5325L82.4244 20.755L81.2572 21.9222L80.5351 23.0335L79.8126 24.3114L78.868 26.2565L77.9788 27.9791L76.9787 29.3128L75.7562 30.8687L72.1441 34.2027L71.8107 34.4806L70.9773 35.6477L70.3106 36.9812L69.9215 38.6483L69.6994 40.1488L69.6435 41.816L69.8102 42.9272L70.3106 44.4832L71.0328 45.9279L71.8107 46.9283L72.8111 47.9283L74.1446 48.8175L75.7005 49.54L76.8677 49.818L78.646 49.8734L80.3686 49.4842L81.4245 48.9842L81.8687 48.6508L82.8691 48.095L83.8138 47.5395L84.6471 47.0395L85.5363 46.6503L86.2588 46.317L87.0922 46.0945L87.9814 46.0391L89.0373 46.2057L89.8152 46.3724L91.0932 46.9837L92.6491 47.7616L93.9275 48.5954L95.0943 49.2621L96.2614 49.7621L97.3727 49.9846L98.3173 50.04L99.0952 49.9846L100.318 49.6509L101.874 48.9287L102.985 48.1508L104.152 46.9837L104.985 45.8724L105.708 44.3719L106.153 42.9272L106.319 41.7047V40.4268L106.263 39.7042L106.097 38.4817Z"/>
<path d="M96.5916 0.0472399C99.8875 0.396092 102.157 4.48897 101.66 9.18919C101.162 13.8894 98.087 17.4171 94.7906 17.0682C91.4947 16.7198 89.2256 12.6265 89.7226 7.92629C90.2199 3.22607 93.2952 -0.301652 96.5916 0.0472399Z"/>
<path d="M86.2277 7.9028C86.725 12.603 84.456 16.6963 81.1596 17.0447C77.8633 17.3936 74.7884 13.8659 74.291 9.1657C73.7937 4.46548 76.0628 0.372639 79.3591 0.0237468C82.6554 -0.324719 85.7308 3.20297 86.2277 7.9028Z"/>
<path d="M108.663 13.5133C111.899 14.2339 113.694 18.5337 112.673 23.1169C111.652 27.7001 108.202 30.8316 104.967 30.111C101.732 29.3904 99.9363 25.0906 100.957 20.5074C101.978 15.9242 105.428 12.7927 108.663 13.5133Z"/>
<path d="M75.0023 20.5074C76.0229 25.0907 74.2278 29.3905 70.9924 30.111C67.7573 30.8316 64.3072 27.7 63.2862 23.1169C62.2657 18.5336 64.0607 14.2338 67.2957 13.5133C70.5311 12.7927 73.9813 15.9243 75.0023 20.5074Z"/>
</mask>
<path d="M43.1667 38.5442L46.1391 38.1387L46.1074 37.9065L46.0401 37.682L43.1667 38.5442ZM42.9997 37.9878L45.8731 37.1256L45.8442 37.0291L45.8088 36.9347L42.9997 37.9878ZM42.6658 37.0972L45.4749 36.0441L45.4636 36.0139L45.4516 35.984L42.6658 37.0972ZM42.4433 36.5405L45.2292 35.4273L45.1608 35.2561L45.0719 35.0946L42.4433 36.5405ZM41.8311 35.4274L44.4597 33.9815L44.3397 33.7635L44.1856 33.5682L41.8311 35.4274ZM40.996 34.3698L43.3505 32.5106L43.1924 32.3104L43.0027 32.1398L40.996 34.3698ZM39.8829 33.3681L37.8598 35.5833L37.8679 35.5907L37.8761 35.5981L39.8829 33.3681ZM38.6028 32.1991L36.5399 34.3772L36.5597 34.3959L36.5797 34.4143L38.6028 32.1991ZM37.5452 31.1974L35.3149 33.2038L35.3951 33.293L35.4823 33.3756L37.5452 31.1974ZM36.5435 30.0839L34.1439 31.8843L34.2239 31.9911L34.3132 32.0903L36.5435 30.0839ZM35.7084 28.9708L33.2124 30.6351L33.2587 30.7045L33.3087 30.7713L35.7084 28.9708ZM34.9292 27.8022L32.2847 29.2187L32.353 29.3461L32.4332 29.4665L34.9292 27.8022ZM34.0945 26.2437L31.3835 27.5285L31.4151 27.5952L31.4499 27.6602L34.0945 26.2437ZM33.5933 25.1861L36.3042 23.9013L36.2786 23.8473L36.2508 23.7943L33.5933 25.1861ZM32.981 24.0171L35.6386 22.6252L35.5938 22.5397L35.5436 22.4572L32.981 24.0171ZM32.2018 22.737L34.7643 21.1771L34.6831 21.0437L34.5885 20.9195L32.2018 22.737ZM31.3115 21.568L33.6983 19.7504L33.5758 19.5896L33.4329 19.4467L31.3115 21.568ZM30.6993 20.9557L32.8206 18.8344L32.7699 18.7837L32.7168 18.7354L30.6993 20.9557ZM30.087 20.3994L32.1045 18.1791L31.9879 18.0731L31.8608 17.9799L30.087 20.3994ZM29.2519 19.7871L31.0257 17.3677L30.7655 17.1769L30.4706 17.0458L29.2519 19.7871ZM28.2502 19.3418L29.4689 16.6005L29.3544 16.5495L29.236 16.5083L28.2502 19.3418ZM26.9702 18.8964L27.9559 16.063L27.6642 15.9615L27.358 15.9216L26.9702 18.8964ZM25.6897 18.7295L26.0776 15.7547L25.8845 15.7295H25.6897V18.7295ZM24.3541 18.7295V15.7295H24.1593L23.9662 15.7547L24.3541 18.7295ZM23.0736 18.8964L22.6858 15.9216L22.3585 15.9643L22.0484 16.0771L23.0736 18.8964ZM21.2372 19.5642L20.212 16.7448L19.8527 16.8755L19.5377 17.092L21.2372 19.5642ZM19.4559 20.7887L17.7564 18.3165L17.5294 18.4726L17.3346 18.6674L19.4559 20.7887ZM18.2869 21.9578L16.1655 19.8364L15.9429 20.0591L15.7713 20.3231L18.2869 21.9578ZM17.5636 23.0708L15.048 21.4362L14.9976 21.5138L14.952 21.5944L17.5636 23.0708ZM16.8399 24.3509L14.2283 22.8745L14.1822 22.9561L14.1413 23.0404L16.8399 24.3509ZM15.8937 26.2992L18.5595 27.6753L18.5763 27.6427L18.5923 27.6097L15.8937 26.2992ZM15.0031 28.0245L17.4033 29.8242L17.5538 29.6235L17.6689 29.4006L15.0031 28.0245ZM14.0014 29.3604L16.3604 31.2139L16.3813 31.1872L16.4017 31.1601L14.0014 29.3604ZM12.7769 30.9189L14.8116 33.1234L14.9878 32.9608L15.1359 32.7723L12.7769 30.9189ZM9.15888 34.2582L11.08 36.5624L11.138 36.514L11.1936 36.4627L9.15888 34.2582ZM8.82499 34.5366L6.9039 32.2324L6.60764 32.4794L6.38349 32.7933L8.82499 34.5366ZM7.99026 35.7056L5.54877 33.9623L5.41212 34.1537L5.30697 34.364L7.99026 35.7056ZM7.32247 37.0412L4.63918 35.6996L4.48128 36.0154L4.40101 36.3593L7.32247 37.0412ZM6.93267 38.7111L4.01121 38.0292L3.98311 38.1495L3.96501 38.2718L6.93267 38.7111ZM6.7102 40.214L3.74254 39.7747L3.71759 39.9433L3.71188 40.1136L6.7102 40.214ZM6.6543 41.8839L3.65598 41.7835L3.6468 42.0576L3.68748 42.3289L6.6543 41.8839ZM6.82124 42.997L3.85443 43.4419L3.89062 43.6832L3.96532 43.9155L6.82124 42.997ZM7.32247 44.5554L4.46655 45.4739L4.53665 45.6919L4.63903 45.8967L7.32247 44.5554ZM8.04577 46.0024L5.36233 47.3438L5.49515 47.6095L5.67751 47.844L8.04577 46.0024ZM8.82498 47.0045L6.45672 48.8461L6.57166 48.9939L6.70408 49.1263L8.82498 47.0045ZM9.82704 48.0062L7.70614 50.1279L7.9159 50.3376L8.16265 50.5021L9.82704 48.0062ZM11.1627 48.8968L9.49827 51.3928L9.69007 51.5207L9.89915 51.6178L11.1627 48.8968ZM12.7211 49.6205L11.4576 52.3414L11.7319 52.4688L12.0262 52.5389L12.7211 49.6205ZM13.8902 49.8989L13.1952 52.8173L13.4919 52.8879L13.7967 52.8974L13.8902 49.8989ZM15.6714 49.9544L15.578 52.9529L15.9599 52.9648L16.3326 52.8806L15.6714 49.9544ZM17.3968 49.5646L18.0579 52.4908L18.3812 52.4178L18.6807 52.2759L17.3968 49.5646ZM18.4544 49.0637L19.7384 51.7751L20.0125 51.6453L20.2551 51.4632L18.4544 49.0637ZM18.8993 48.7299L17.4423 46.1074L17.2628 46.2071L17.0986 46.3304L18.8993 48.7299ZM19.9014 48.1731L21.3584 50.7955L21.3904 50.7777L21.422 50.7591L19.9014 48.1731ZM20.8475 47.6167L22.3682 50.2028L22.3797 50.196L22.391 50.1892L20.8475 47.6167ZM21.6823 47.1159L20.4794 44.3676L20.3035 44.4446L20.1388 44.5434L21.6823 47.1159ZM22.5729 46.7261L23.7757 49.4744L23.8029 49.4625L23.8297 49.4501L22.5729 46.7261ZM23.2966 46.3922L22.5228 43.4937L22.2738 43.5602L22.0398 43.6682L23.2966 46.3922ZM24.1313 46.1693L23.9447 43.1752L23.6463 43.1938L23.3575 43.2709L24.1313 46.1693ZM25.0219 46.1138L25.4897 43.1505L25.1642 43.0991L24.8353 43.1196L25.0219 46.1138ZM26.0796 46.2808L26.7081 43.3473L26.6281 43.3302L26.5473 43.3175L26.0796 46.2808ZM26.8588 46.4477L28.1533 43.7414L27.8337 43.5885L27.4873 43.5143L26.8588 46.4477ZM28.1388 47.06L29.4804 44.3767L29.457 44.365L29.4333 44.3536L28.1388 47.06ZM29.6973 47.8392L31.3361 45.3264L31.1924 45.2326L31.0389 45.1559L29.6973 47.8392ZM30.9777 48.6743L29.3389 51.1871L29.4128 51.2353L29.4893 51.279L30.9777 48.6743ZM32.1464 49.3421L30.658 51.9468L30.8071 52.032L30.965 52.0997L32.1464 49.3421ZM33.3154 49.8429L32.134 52.6005L32.4207 52.7233L32.7265 52.7846L33.3154 49.8429ZM34.4285 50.0658L33.8396 53.0074L34.0443 53.0484L34.2528 53.0606L34.4285 50.0658ZM35.3747 50.1213L35.1989 53.1162L35.3935 53.1276L35.5879 53.1137L35.3747 50.1213ZM36.1539 50.0658L36.3671 53.0582L36.6603 53.0373L36.9439 52.9599L36.1539 50.0658ZM37.3784 49.7315L38.1684 52.6256L38.4122 52.5591L38.6413 52.4527L37.3784 49.7315ZM38.9368 49.0082L40.1998 51.7294L40.4402 51.6178L40.6573 51.4659L38.9368 49.0082ZM40.0499 48.229L41.7704 50.6867L41.9855 50.536L42.1712 50.3503L40.0499 48.229ZM41.2189 47.06L43.3403 49.1813L43.4911 49.0305L43.619 48.8599L41.2189 47.06ZM42.0537 45.9469L44.4538 47.7468L44.6295 47.5124L44.7566 47.2484L42.0537 45.9469ZM42.7774 44.444L45.4803 45.7456L45.5782 45.5422L45.6446 45.3264L42.7774 44.444ZM43.2227 42.997L46.09 43.8794L46.1621 43.6451L46.1952 43.4022L43.2227 42.997ZM43.3896 41.7725L46.3621 42.1777L46.3896 41.976V41.7725H43.3896ZM43.3896 40.4924H46.3896V40.3767L46.3807 40.2613L43.3896 40.4924ZM43.3337 39.7687L46.3248 39.5376L46.318 39.4501L46.3062 39.3632L43.3337 39.7687ZM33.6458 0.0472786L33.9616 -2.93606L33.9616 -2.93606L33.6458 0.0472786ZM38.7221 9.20409L41.7055 9.51974L41.7055 9.51951L38.7221 9.20409ZM31.842 17.0959L32.1577 14.1126L32.1574 14.1126L31.842 17.0959ZM26.7657 7.93914L23.7823 7.62348L23.7823 7.62371L26.7657 7.93914ZM23.2658 7.91564L20.2824 8.23109L20.2824 8.2313L23.2658 7.91564ZM18.1895 17.0725L17.874 14.0891L17.8737 14.0891L18.1895 17.0725ZM11.3097 9.18059L8.32635 9.49625L8.32635 9.49627L11.3097 9.18059ZM16.386 0.0237854L16.0706 -2.95959L16.0702 -2.95955L16.386 0.0237854ZM45.737 13.5359L45.0847 16.4642L45.0848 16.4642L45.737 13.5359ZM49.7534 23.1551L52.6816 23.8074L52.6817 23.8072L49.7534 23.1551ZM42.0343 30.1606L41.3821 33.0888L41.3821 33.0888L42.0343 30.1606ZM38.0183 20.5414L40.9465 21.1937L40.9466 21.1935L38.0183 20.5414ZM12.0218 20.5414L14.9501 19.8894L14.95 19.8891L12.0218 20.5414ZM8.00542 30.1606L7.35331 27.2323L7.35319 27.2324L8.00542 30.1606ZM0.2867 23.1551L-2.64158 23.8072L-2.64152 23.8074L0.2867 23.1551ZM4.3027 13.5359L3.65053 10.6077L3.65051 10.6077L4.3027 13.5359ZM106.097 38.4817L109.069 38.0762L109.037 37.844L108.97 37.6195L106.097 38.4817ZM105.93 37.9263L108.803 37.064L108.774 36.9675L108.739 36.8731L105.93 37.9263ZM105.597 37.0371L108.406 35.984L108.394 35.9538L108.382 35.9239L105.597 37.0371ZM105.375 36.4812L108.16 35.368L108.092 35.1969L108.003 35.0353L105.375 36.4812ZM104.763 35.3699L107.392 33.9241L107.272 33.7061L107.118 33.5108L104.763 35.3699ZM103.929 34.314L106.284 32.4549L106.126 32.2547L105.936 32.084L103.929 34.314ZM102.818 33.314L100.795 35.5292L100.803 35.5366L100.811 35.544L102.818 33.314ZM101.54 32.1469L99.4773 34.325L99.4971 34.3437L99.5171 34.3621L101.54 32.1469ZM100.484 31.1468L98.254 33.1532L98.3343 33.2424L98.4214 33.325L100.484 31.1468ZM99.4843 30.0351L97.0846 31.8356L97.1647 31.9423L97.2539 32.0415L99.4843 30.0351ZM98.6505 28.9239L96.1545 30.5881L96.2008 30.6576L96.2508 30.7243L98.6505 28.9239ZM97.8726 27.7571L95.228 29.1736L95.2963 29.3011L95.3765 29.4214L97.8726 27.7571ZM97.0392 26.2012L94.3282 27.486L94.3598 27.5526L94.3947 27.6177L97.0392 26.2012ZM96.5388 25.1453L99.2498 23.8605L99.2241 23.8064L99.1964 23.7534L96.5388 25.1453ZM95.9275 23.9782L98.5851 22.5863L98.5403 22.5007L98.4901 22.4183L95.9275 23.9782ZM95.1496 22.7002L97.7121 21.1403L97.6309 21.0069L97.5363 20.8826L95.1496 22.7002ZM94.2608 21.533L96.6475 19.7155L96.525 19.5547L96.3821 19.4117L94.2608 21.533ZM93.6495 20.9218L95.7708 18.8004L95.7201 18.7497L95.667 18.7015L93.6495 20.9218ZM93.0382 20.3663L95.0558 18.146L94.9391 18.0401L94.812 17.9469L93.0382 20.3663ZM92.2045 19.755L93.9783 17.3356L93.718 17.1448L93.4232 17.0137L92.2045 19.755ZM91.2044 19.3104L92.4232 16.5691L92.3086 16.5182L92.1902 16.477L91.2044 19.3104ZM89.9264 18.8658L90.9122 16.0324L90.6205 15.9309L90.3143 15.891L89.9264 18.8658ZM88.6481 18.6991L89.0359 15.7243L88.8428 15.6991H88.6481V18.6991ZM87.3146 18.6991V15.6991H87.1199L86.9268 15.7243L87.3146 18.6991ZM86.0362 18.8658L85.6484 15.891L85.3211 15.9337L85.011 16.0464L86.0362 18.8658ZM84.2028 19.5325L83.1776 16.7131L82.8183 16.8438L82.5033 17.0603L84.2028 19.5325ZM82.4244 20.755L80.7249 18.2828L80.4979 18.4389L80.303 18.6337L82.4244 20.755ZM81.2572 21.9222L79.1359 19.8009L78.9133 20.0235L78.7417 20.2875L81.2572 21.9222ZM80.5351 23.0335L78.0196 21.3988L77.9691 21.4764L77.9236 21.557L80.5351 23.0335ZM79.8126 24.3114L77.201 22.835L77.1549 22.9166L77.114 23.0009L79.8126 24.3114ZM78.868 26.2565L81.5337 27.6326L81.5506 27.6001L81.5666 27.5671L78.868 26.2565ZM77.9788 27.9791L80.379 29.7788L80.5295 29.5781L80.6445 29.3552L77.9788 27.9791ZM76.9787 29.3128L79.3377 31.1663L79.3586 31.1396L79.379 31.1125L76.9787 29.3128ZM75.7562 30.8687L77.7909 33.0733L77.9671 32.9107L78.1152 32.7222L75.7562 30.8687ZM72.1441 34.2027L74.0652 36.5069L74.1232 36.4585L74.1788 36.4072L72.1441 34.2027ZM71.8107 34.4806L69.8896 32.1764L69.5933 32.4234L69.3692 32.7373L71.8107 34.4806ZM70.9773 35.6477L68.5358 33.9044L68.3992 34.0958L68.294 34.3061L70.9773 35.6477ZM70.3106 36.9812L67.6273 35.6396L67.4694 35.9554L67.3892 36.2992L70.3106 36.9812ZM69.9215 38.6483L67 37.9664L66.9719 38.0868L66.9538 38.2091L69.9215 38.6483ZM69.6994 40.1488L66.7317 39.7095L66.7067 39.8781L66.701 40.0484L69.6994 40.1488ZM69.6435 41.816L66.6452 41.7156L66.636 41.9897L66.6767 42.2609L69.6435 41.816ZM69.8102 42.9272L66.8434 43.3722L66.8796 43.6135L66.9543 43.8458L69.8102 42.9272ZM70.3106 44.4832L67.4547 45.4017L67.5248 45.6197L67.6272 45.8245L70.3106 44.4832ZM71.0328 45.9279L68.3493 47.2692L68.4821 47.5349L68.6645 47.7694L71.0328 45.9279ZM71.8107 46.9283L69.4424 48.7699L69.5574 48.9177L69.6898 49.05L71.8107 46.9283ZM72.8111 47.9283L70.6902 50.0501L70.9 50.2597L71.1467 50.4243L72.8111 47.9283ZM74.1446 48.8175L72.4802 51.3135L72.672 51.4414L72.8811 51.5385L74.1446 48.8175ZM75.7005 49.54L74.437 52.261L74.7113 52.3884L75.0056 52.4584L75.7005 49.54ZM76.8677 49.818L76.1727 52.7364L76.4694 52.807L76.7742 52.8165L76.8677 49.818ZM78.646 49.8734L78.5526 52.8719L78.9345 52.8838L79.3072 52.7996L78.646 49.8734ZM80.3686 49.4842L81.0297 52.4105L81.353 52.3374L81.6525 52.1956L80.3686 49.4842ZM81.4245 48.9842L82.7084 51.6955L82.9826 51.5657L83.2252 51.3837L81.4245 48.9842ZM81.8687 48.6508L80.4117 46.0284L80.2322 46.1281L80.068 46.2513L81.8687 48.6508ZM82.8691 48.095L84.3261 50.7174L84.3582 50.6996L84.3898 50.681L82.8691 48.095ZM83.8138 47.5395L85.3344 50.1256L85.3459 50.1188L85.3573 50.112L83.8138 47.5395ZM84.6471 47.0395L83.4443 44.2912L83.2683 44.3682L83.1036 44.467L84.6471 47.0395ZM85.5363 46.6503L86.7392 49.3986L86.7663 49.3868L86.7931 49.3744L85.5363 46.6503ZM86.2588 46.317L85.485 43.4185L85.236 43.485L85.002 43.5929L86.2588 46.317ZM87.0922 46.0945L86.9056 43.1003L86.6072 43.1189L86.3184 43.196L87.0922 46.0945ZM87.9814 46.0391L88.4491 43.0757L88.1236 43.0244L87.7947 43.0449L87.9814 46.0391ZM89.0373 46.2057L89.6658 43.2723L89.5858 43.2552L89.5051 43.2424L89.0373 46.2057ZM89.8152 46.3724L91.1097 43.6661L90.7901 43.5132L90.4437 43.439L89.8152 46.3724ZM91.0932 46.9837L92.4348 44.3004L92.4114 44.2887L92.3877 44.2773L91.0932 46.9837ZM92.6491 47.7616L94.288 45.2488L94.1442 45.1551L93.9908 45.0783L92.6491 47.7616ZM93.9275 48.5954L92.2887 51.1082L92.3625 51.1564L92.4391 51.2001L93.9275 48.5954ZM95.0943 49.2621L93.6058 51.8668L93.755 51.952L93.9129 52.0197L95.0943 49.2621ZM96.2614 49.7621L95.08 52.5197L95.3667 52.6425L95.6725 52.7037L96.2614 49.7621ZM97.3727 49.9846L96.7837 52.9262L96.9885 52.9672L97.1969 52.9795L97.3727 49.9846ZM98.3173 50.04L98.1416 53.0349L98.3361 53.0463L98.5305 53.0325L98.3173 50.04ZM99.0952 49.9846L99.3085 52.977L99.6017 52.9561L99.8853 52.8787L99.0952 49.9846ZM100.318 49.6509L101.108 52.545L101.352 52.4784L101.581 52.3721L100.318 49.6509ZM101.874 48.9287L103.137 51.6499L103.377 51.5384L103.594 51.3864L101.874 48.9287ZM102.985 48.1508L104.705 50.6085L104.921 50.4578L105.106 50.2721L102.985 48.1508ZM104.152 46.9837L106.273 49.105L106.424 48.9542L106.552 48.7835L104.152 46.9837ZM104.985 45.8724L107.386 47.6723L107.561 47.4379L107.688 47.1739L104.985 45.8724ZM105.708 44.3719L108.411 45.6735L108.509 45.4701L108.575 45.2543L105.708 44.3719ZM106.153 42.9272L109.02 43.8096L109.092 43.5754L109.125 43.3325L106.153 42.9272ZM106.319 41.7047L109.292 42.11L109.319 41.9083V41.7047H106.319ZM106.319 40.4268H109.319V40.311L109.31 40.1957L106.319 40.4268ZM106.263 39.7042L109.255 39.4732L109.248 39.3857L109.236 39.2987L106.263 39.7042ZM96.5916 0.0472399L96.9073 -2.9361L96.9073 -2.9361L96.5916 0.0472399ZM101.66 9.18919L104.643 9.50485L104.643 9.50462L101.66 9.18919ZM94.7906 17.0682L95.1064 14.0849L95.1061 14.0849L94.7906 17.0682ZM89.7226 7.92629L86.7392 7.61064L86.7392 7.61087L89.7226 7.92629ZM86.2277 7.9028L83.2443 8.21825L83.2444 8.21845L86.2277 7.9028ZM81.1596 17.0447L80.8442 14.0614L80.8439 14.0614L81.1596 17.0447ZM74.291 9.1657L71.3077 9.48135L71.3077 9.48137L74.291 9.1657ZM79.3591 0.0237468L79.0437 -2.95963L79.0433 -2.95959L79.3591 0.0237468ZM108.663 13.5133L108.011 16.4415L108.011 16.4416L108.663 13.5133ZM112.673 23.1169L115.602 23.7692L115.602 23.769L112.673 23.1169ZM104.967 30.111L104.315 33.0392L104.315 33.0392L104.967 30.111ZM100.957 20.5074L103.886 21.1597L103.886 21.1595L100.957 20.5074ZM75.0023 20.5074L77.9306 19.8554L77.9305 19.8551L75.0023 20.5074ZM70.9924 30.111L70.3403 27.1827L70.3402 27.1828L70.9924 30.111ZM63.2862 23.1169L60.358 23.7689L60.358 23.7692L63.2862 23.1169ZM67.2957 13.5133L66.6435 10.5851L66.6435 10.5851L67.2957 13.5133ZM46.0401 37.682L45.8731 37.1256L40.1263 38.8501L40.2932 39.4064L46.0401 37.682ZM45.8088 36.9347L45.4749 36.0441L39.8567 38.1503L40.1906 39.041L45.8088 36.9347ZM45.4516 35.984L45.2292 35.4273L39.6575 37.6536L39.88 38.2104L45.4516 35.984ZM45.0719 35.0946L44.4597 33.9815L39.2025 36.8733L39.8148 37.9864L45.0719 35.0946ZM44.1856 33.5682L43.3505 32.5106L38.6415 36.2289L39.4766 37.2865L44.1856 33.5682ZM43.0027 32.1398L41.8897 31.1381L37.8761 35.5981L38.9892 36.5998L43.0027 32.1398ZM41.906 31.1529L40.6259 29.9839L36.5797 34.4143L37.8598 35.5833L41.906 31.1529ZM40.6657 30.0209L39.6081 29.0192L35.4823 33.3756L36.5399 34.3772L40.6657 30.0209ZM39.7756 29.191L38.7739 28.0775L34.3132 32.0903L35.3149 33.2038L39.7756 29.191ZM38.9432 28.2835L38.1081 27.1704L33.3087 30.7713L34.1439 31.8843L38.9432 28.2835ZM38.2045 27.3066L37.4253 26.1379L32.4332 29.4665L33.2124 30.6351L38.2045 27.3066ZM37.5738 26.3857L36.739 24.8273L31.4499 27.6602L32.2847 29.2187L37.5738 26.3857ZM36.8055 24.959L36.3042 23.9013L30.8823 26.4709L31.3835 27.5285L36.8055 24.959ZM36.2508 23.7943L35.6386 22.6252L30.3234 25.4089L30.9357 26.578L36.2508 23.7943ZM35.5436 22.4572L34.7643 21.1771L29.6392 24.2969L30.4184 25.577L35.5436 22.4572ZM34.5885 20.9195L33.6983 19.7504L28.9248 23.3855L29.8151 24.5546L34.5885 20.9195ZM33.4329 19.4467L32.8206 18.8344L28.5779 23.077L29.1902 23.6893L33.4329 19.4467ZM32.7168 18.7354L32.1045 18.1791L28.0695 22.6196L28.6817 23.176L32.7168 18.7354ZM31.8608 17.9799L31.0257 17.3677L27.4781 22.2065L28.3132 22.8188L31.8608 17.9799ZM30.4706 17.0458L29.4689 16.6005L27.0315 22.0831L28.0332 22.5284L30.4706 17.0458ZM29.236 16.5083L27.9559 16.063L25.9844 21.7299L27.2645 22.1752L29.236 16.5083ZM27.358 15.9216L26.0776 15.7547L25.3018 21.7043L26.5823 21.8713L27.358 15.9216ZM25.6897 15.7295H24.3541V21.7295H25.6897V15.7295ZM23.9662 15.7547L22.6858 15.9216L23.4615 21.8713L24.742 21.7043L23.9662 15.7547ZM22.0484 16.0771L20.212 16.7448L22.2624 22.3836L24.0988 21.7158L22.0484 16.0771ZM19.5377 17.092L17.7564 18.3165L21.1554 23.2609L22.9366 22.0364L19.5377 17.092ZM17.3346 18.6674L16.1655 19.8364L20.4082 24.0791L21.5772 22.91L17.3346 18.6674ZM15.7713 20.3231L15.048 21.4362L20.0791 24.7055L20.8024 23.5924L15.7713 20.3231ZM14.952 21.5944L14.2283 22.8745L19.4514 25.8273L20.1751 24.5473L14.952 21.5944ZM14.1413 23.0404L13.1951 24.9886L18.5923 27.6097L19.5385 25.6615L14.1413 23.0404ZM13.2279 24.9231L12.3373 26.6484L17.6689 29.4006L18.5595 27.6753L13.2279 24.9231ZM12.6028 26.2248L11.6012 27.5607L16.4017 31.1601L17.4033 29.8242L12.6028 26.2248ZM11.6425 27.507L10.418 29.0654L15.1359 32.7723L16.3604 31.2139L11.6425 27.507ZM10.7422 28.7143L7.12417 32.0537L11.1936 36.4627L14.8116 33.1234L10.7422 28.7143ZM7.2378 31.954L6.9039 32.2324L10.7461 36.8408L11.08 36.5624L7.2378 31.954ZM6.38349 32.7933L5.54877 33.9623L10.4318 37.4489L11.2665 36.2799L6.38349 32.7933ZM5.30697 34.364L4.63918 35.6996L10.0058 38.3829L10.6736 37.0472L5.30697 34.364ZM4.40101 36.3593L4.01121 38.0292L9.85413 39.3931L10.2439 37.7232L4.40101 36.3593ZM3.96501 38.2718L3.74254 39.7747L9.67787 40.6533L9.90033 39.1504L3.96501 38.2718ZM3.71188 40.1136L3.65598 41.7835L9.65262 41.9843L9.70852 40.3144L3.71188 40.1136ZM3.68748 42.3289L3.85443 43.4419L9.78806 42.552L9.62111 41.4389L3.68748 42.3289ZM3.96532 43.9155L4.46655 45.4739L10.1784 43.6369L9.67717 42.0784L3.96532 43.9155ZM4.63903 45.8967L5.36233 47.3438L10.7292 44.6611L10.0059 43.2141L4.63903 45.8967ZM5.67751 47.844L6.45672 48.8461L11.1932 45.1629L10.414 44.1609L5.67751 47.844ZM6.70408 49.1263L7.70614 50.1279L11.9479 45.8844L10.9459 44.8828L6.70408 49.1263ZM8.16265 50.5021L9.49827 51.3928L12.827 46.4008L11.4914 45.5102L8.16265 50.5021ZM9.89915 51.6178L11.4576 52.3414L13.9846 46.8996L12.4262 46.1759L9.89915 51.6178ZM12.0262 52.5389L13.1952 52.8173L14.5851 46.9805L13.416 46.7021L12.0262 52.5389ZM13.7967 52.8974L15.578 52.9529L15.7649 46.9558L13.9836 46.9003L13.7967 52.8974ZM16.3326 52.8806L18.0579 52.4908L16.7356 46.6383L15.0103 47.0281L16.3326 52.8806ZM18.6807 52.2759L19.7384 51.7751L17.1704 46.3524L16.1128 46.8532L18.6807 52.2759ZM20.2551 51.4632L20.7 51.1293L17.0986 46.3304L16.6537 46.6643L20.2551 51.4632ZM20.3563 51.3523L21.3584 50.7955L18.4444 45.5507L17.4423 46.1074L20.3563 51.3523ZM21.422 50.7591L22.3682 50.2028L19.3269 45.0307L18.3807 45.5871L21.422 50.7591ZM22.391 50.1892L23.2258 49.6884L20.1388 44.5434L19.304 45.0443L22.391 50.1892ZM22.8851 49.8642L23.7757 49.4744L21.3701 43.9778L20.4794 44.3676L22.8851 49.8642ZM23.8297 49.4501L24.5534 49.1162L22.0398 43.6682L21.3161 44.0021L23.8297 49.4501ZM24.0704 49.2907L24.9051 49.0678L23.3575 43.2709L22.5228 43.4937L24.0704 49.2907ZM24.318 49.1635L25.2086 49.108L24.8353 43.1196L23.9447 43.1752L24.318 49.1635ZM24.5542 49.0771L25.6118 49.2441L26.5473 43.3175L25.4897 43.1505L24.5542 49.0771ZM25.4511 49.2142L26.2303 49.3811L27.4873 43.5143L26.7081 43.3473L25.4511 49.2142ZM25.5643 49.1541L26.8444 49.7663L29.4333 44.3536L28.1533 43.7414L25.5643 49.1541ZM26.7972 49.7433L28.3557 50.5225L31.0389 45.1559L29.4804 44.3767L26.7972 49.7433ZM28.0584 50.352L29.3389 51.1871L32.6166 46.1615L31.3361 45.3264L28.0584 50.352ZM29.4893 51.279L30.658 51.9468L33.6348 46.7374L32.4662 46.0696L29.4893 51.279ZM30.965 52.0997L32.134 52.6005L34.4968 47.0854L33.3278 46.5845L30.965 52.0997ZM32.7265 52.7846L33.8396 53.0074L35.0175 47.1242L33.9044 46.9013L32.7265 52.7846ZM34.2528 53.0606L35.1989 53.1162L35.5504 47.1265L34.6042 47.071L34.2528 53.0606ZM35.5879 53.1137L36.3671 53.0582L35.9407 47.0734L35.1614 47.1289L35.5879 53.1137ZM36.9439 52.9599L38.1684 52.6256L36.5883 46.8374L35.3638 47.1717L36.9439 52.9599ZM38.6413 52.4527L40.1998 51.7294L37.6739 46.287L36.1154 47.0103L38.6413 52.4527ZM40.6573 51.4659L41.7704 50.6867L38.3294 45.7714L37.2164 46.5506L40.6573 51.4659ZM42.1712 50.3503L43.3403 49.1813L39.0976 44.9387L37.9286 46.1077L42.1712 50.3503ZM43.619 48.8599L44.4538 47.7468L39.6536 44.147L38.8188 45.2601L43.619 48.8599ZM44.7566 47.2484L45.4803 45.7456L40.0744 43.1424L39.3507 44.6453L44.7566 47.2484ZM45.6446 45.3264L46.09 43.8794L40.3554 42.1146L39.9101 43.5616L45.6446 45.3264ZM46.1952 43.4022L46.3621 42.1777L40.4171 41.3672L40.2502 42.5917L46.1952 43.4022ZM46.3896 41.7725V40.4924H40.3896V41.7725H46.3896ZM46.3807 40.2613L46.3248 39.5376L40.3426 39.9998L40.3985 40.7235L46.3807 40.2613ZM46.3062 39.3632L46.1391 38.1387L40.1942 38.9497L40.3612 40.1742L46.3062 39.3632ZM33.33 3.03061C33.7425 3.07427 34.3941 3.38028 34.9848 4.44585C35.5701 5.50164 35.9307 7.07292 35.7388 8.88866L41.7055 9.51951C42.0113 6.62739 41.4843 3.79498 40.2324 1.53669C38.9858 -0.711834 36.8504 -2.63029 33.9616 -2.93606L33.33 3.03061ZM35.7388 8.88843C35.5467 10.7041 34.8653 12.1652 34.0721 13.0751C33.2715 13.9934 32.5703 14.1563 32.1577 14.1126L31.5262 20.0793C34.4153 20.3851 36.9051 18.9559 38.5947 17.0179C40.2916 15.0715 41.3995 12.4119 41.7055 9.51974L35.7388 8.88843ZM32.1574 14.1126C31.7452 14.069 31.0937 13.7632 30.503 12.6976C29.9176 11.6417 29.5571 10.0703 29.749 8.25456L23.7823 7.62371C23.4765 10.5158 24.0034 13.3483 25.2554 15.6066C26.5019 17.8552 28.6374 19.7739 31.5265 20.0793L32.1574 14.1126ZM29.749 8.25479C29.9411 6.43909 30.6225 4.97803 31.4157 4.06812C32.2163 3.14981 32.9175 2.98695 33.33 3.03061L33.9616 -2.93606C31.0725 -3.24185 28.5826 -1.81272 26.8931 0.125307C25.1962 2.07172 24.0883 4.73132 23.7823 7.62348L29.749 8.25479ZM20.2824 8.2313C20.4745 10.047 20.114 11.6183 19.5287 12.6741C18.9381 13.7396 18.2865 14.0455 17.874 14.0891L18.5049 20.0558C21.3941 19.7504 23.5297 17.8318 24.7763 15.5831C26.0283 13.3247 26.5551 10.4922 26.2491 7.59999L20.2824 8.2313ZM17.8737 14.0891C17.4612 14.1328 16.7601 13.9699 15.9596 13.0517C15.1665 12.1418 14.4852 10.6807 14.293 8.86492L8.32635 9.49627C8.63236 12.3883 9.7401 15.0479 11.4369 16.9943C13.1263 18.9324 15.6161 20.3615 18.5052 20.0558L17.8737 14.0891ZM14.293 8.86494C14.1009 7.04925 14.4614 5.47807 15.0467 4.42237C15.6373 3.35695 16.289 3.05081 16.7018 3.00712L16.0702 -2.95955C13.1813 -2.65378 11.0458 -0.735448 9.79915 1.51321C8.54714 3.77159 8.02034 6.60407 8.32635 9.49625L14.293 8.86494ZM16.7014 3.00716C17.1141 2.96353 17.8154 3.12657 18.616 4.04489C19.4092 4.9548 20.0904 6.41572 20.2824 8.23109L26.2491 7.60019C25.9433 4.70811 24.8355 2.04858 23.1387 0.102168C21.4492 -1.83584 18.9596 -3.26499 16.0706 -2.95959L16.7014 3.00716ZM45.0848 16.4642C45.4984 16.5563 46.1106 16.9374 46.5754 18.0506C47.0365 19.1549 47.2177 20.7401 46.8251 22.503L52.6817 23.8072C53.3114 20.9795 53.1047 18.1161 52.1122 15.7389C51.1234 13.3705 49.2163 11.2373 46.3892 10.6077L45.0848 16.4642ZM46.8252 22.5028C46.4325 24.2658 45.5956 25.6243 44.7094 26.4285C43.8162 27.2392 43.1001 27.3245 42.6865 27.2323L41.3821 33.0888C44.2091 33.7185 46.8413 32.5963 48.7418 30.8715C50.6494 29.1402 52.0517 26.6351 52.6816 23.8074L46.8252 22.5028ZM42.6865 27.2324C42.2731 27.1403 41.6609 26.7592 41.1961 25.646C40.735 24.5417 40.5538 22.9565 40.9465 21.1937L35.0901 19.8891C34.4601 22.7169 34.6668 25.5804 35.6593 27.9577C36.6481 30.3259 38.5552 32.4592 41.3821 33.0888L42.6865 27.2324ZM40.9466 21.1935C41.3391 19.4307 42.1759 18.0722 43.0621 17.268C43.9554 16.4573 44.6714 16.3721 45.0847 16.4642L46.3893 10.6077C43.5623 9.978 40.9301 11.1003 39.0297 12.825C37.1221 14.5563 35.7197 17.0615 35.09 19.8894L40.9466 21.1935ZM9.09353 21.1935C9.48611 22.9565 9.30488 24.5417 8.84382 25.646C8.37905 26.7592 7.76687 27.1402 7.35331 27.2323L8.65752 33.0889C11.4846 32.4593 13.3918 30.3261 14.3806 27.9577C15.3731 25.5805 15.5798 22.717 14.9501 19.8894L9.09353 21.1935ZM7.35319 27.2324C6.93985 27.3244 6.22391 27.2393 5.33064 26.4285C4.44453 25.6243 3.60765 24.2658 3.21492 22.5028L-2.64152 23.8074C-2.01162 26.635 -0.609311 29.1401 1.29819 30.8714C3.19854 32.5962 5.83064 33.7185 8.65765 33.0888L7.35319 27.2324ZM3.21498 22.503C2.8224 20.7401 3.00363 19.1548 3.46468 18.0504C3.92945 16.9372 4.5416 16.5562 4.95488 16.4642L3.65051 10.6077C0.82352 11.2373 -1.08345 13.3706 -2.07217 15.7389C-3.06461 18.116 -3.27124 20.9795 -2.64158 23.8072L3.21498 22.503ZM4.95487 16.4642C5.36847 16.3721 6.08455 16.4573 6.97783 17.268C7.86398 18.0723 8.70086 19.4308 9.09359 21.1937L14.95 19.8891C14.3201 17.0615 12.9178 14.5563 11.0102 12.8251C9.10973 11.1002 6.47757 9.97805 3.65053 10.6077L4.95487 16.4642ZM108.97 37.6195L108.803 37.064L103.057 38.7885L103.223 39.344L108.97 37.6195ZM108.739 36.8731L108.406 35.984L102.788 38.0902L103.121 38.9794L108.739 36.8731ZM108.382 35.9239L108.16 35.368L102.589 37.5944L102.811 38.1502L108.382 35.9239ZM108.003 35.0353L107.392 33.9241L102.135 36.8158L102.746 37.9271L108.003 35.0353ZM107.118 33.5108L106.284 32.4549L101.575 36.1732L102.409 37.2291L107.118 33.5108ZM105.936 32.084L104.825 31.084L100.811 35.544L101.923 36.544L105.936 32.084ZM104.841 31.0988L103.563 29.9317L99.5171 34.3621L100.795 35.5292L104.841 31.0988ZM103.603 29.9687L102.547 28.9687L98.4214 33.325L99.4773 34.325L103.603 29.9687ZM102.715 29.1404L101.715 28.0288L97.2539 32.0415L98.254 33.1532L102.715 29.1404ZM101.884 28.2347L101.05 27.1235L96.2508 30.7243L97.0846 31.8356L101.884 28.2347ZM101.147 27.2596L100.369 26.0929L95.3765 29.4214L96.1545 30.5881L101.147 27.2596ZM100.517 26.3407L99.6838 24.7847L94.3947 27.6177L95.228 29.1736L100.517 26.3407ZM99.7502 24.9164L99.2498 23.8605L93.8278 26.4301L94.3282 27.486L99.7502 24.9164ZM99.1964 23.7534L98.5851 22.5863L93.2699 25.37L93.8812 26.5372L99.1964 23.7534ZM98.4901 22.4183L97.7121 21.1403L92.587 24.2601L93.365 25.5381L98.4901 22.4183ZM97.5363 20.8826L96.6475 19.7155L91.874 23.3506L92.7628 24.5177L97.5363 20.8826ZM96.3821 19.4117L95.7708 18.8004L91.5282 23.0431L92.1394 23.6544L96.3821 19.4117ZM95.667 18.7015L95.0558 18.146L91.0207 22.5866L91.632 23.142L95.667 18.7015ZM94.812 17.9469L93.9783 17.3356L90.4307 22.1744L91.2644 22.7857L94.812 17.9469ZM93.4232 17.0137L92.4232 16.5691L89.9857 22.0517L90.9857 22.4963L93.4232 17.0137ZM92.1902 16.477L90.9122 16.0324L88.9407 21.6993L90.2187 22.1439L92.1902 16.477ZM90.3143 15.891L89.0359 15.7243L88.2602 21.674L89.5386 21.8406L90.3143 15.891ZM88.6481 15.6991H87.3146V21.6991H88.6481V15.6991ZM86.9268 15.7243L85.6484 15.891L86.4241 21.8406L87.7025 21.674L86.9268 15.7243ZM85.011 16.0464L83.1776 16.7131L85.228 22.3519L87.0614 21.6852L85.011 16.0464ZM82.5033 17.0603L80.7249 18.2828L84.1238 23.2273L85.9022 22.0047L82.5033 17.0603ZM80.303 18.6337L79.1359 19.8009L83.3785 24.0435L84.5457 22.8764L80.303 18.6337ZM78.7417 20.2875L78.0196 21.3988L83.0506 24.6681L83.7728 23.5568L78.7417 20.2875ZM77.9236 21.557L77.201 22.835L82.4241 25.7879L83.1466 24.5099L77.9236 21.557ZM77.114 23.0009L76.1694 24.946L81.5666 27.5671L82.5112 25.622L77.114 23.0009ZM76.2022 24.8804L75.313 26.603L80.6445 29.3552L81.5337 27.6326L76.2022 24.8804ZM75.5785 26.1794L74.5785 27.5131L79.379 31.1125L80.379 29.7788L75.5785 26.1794ZM74.6198 27.4594L73.3973 29.0153L78.1152 32.7222L79.3377 31.1663L74.6198 27.4594ZM73.7215 28.6642L70.1093 31.9981L74.1788 36.4072L77.7909 33.0733L73.7215 28.6642ZM70.223 31.8985L69.8896 32.1764L73.7318 36.7848L74.0652 36.5069L70.223 31.8985ZM69.3692 32.7373L68.5358 33.9044L73.4188 37.391L74.2522 36.2239L69.3692 32.7373ZM68.294 34.3061L67.6273 35.6396L72.9939 38.3228L73.6606 36.9893L68.294 34.3061ZM67.3892 36.2992L67 37.9664L72.8429 39.3303L73.2321 37.6632L67.3892 36.2992ZM66.9538 38.2091L66.7317 39.7095L72.667 40.5881L72.8891 39.0876L66.9538 38.2091ZM66.701 40.0484L66.6452 41.7156L72.6419 41.9164L72.6977 40.2492L66.701 40.0484ZM66.6767 42.2609L66.8434 43.3722L72.777 42.4823L72.6104 41.371L66.6767 42.2609ZM66.9543 43.8458L67.4547 45.4017L73.1666 43.5646L72.6661 42.0087L66.9543 43.8458ZM67.6272 45.8245L68.3493 47.2692L73.7162 44.5865L72.9941 43.1419L67.6272 45.8245ZM68.6645 47.7694L69.4424 48.7699L74.179 45.0867L73.401 44.0863L68.6645 47.7694ZM69.6898 49.05L70.6902 50.0501L74.932 45.8066L73.9316 44.8065L69.6898 49.05ZM71.1467 50.4243L72.4802 51.3135L75.809 46.3216L74.4755 45.4324L71.1467 50.4243ZM72.8811 51.5385L74.437 52.261L76.964 46.8191L75.4081 46.0966L72.8811 51.5385ZM75.0056 52.4584L76.1727 52.7364L77.5626 46.8995L76.3954 46.6216L75.0056 52.4584ZM76.7742 52.8165L78.5526 52.8719L78.7395 46.8748L76.9611 46.8194L76.7742 52.8165ZM79.3072 52.7996L81.0297 52.4105L79.7074 46.558L77.9849 46.9471L79.3072 52.7996ZM81.6525 52.1956L82.7084 51.6955L80.1405 46.2728L79.0846 46.7729L81.6525 52.1956ZM83.2252 51.3837L83.6694 51.0503L80.068 46.2513L79.6238 46.5847L83.2252 51.3837ZM83.3257 51.2733L84.3261 50.7174L81.4121 45.4726L80.4117 46.0284L83.3257 51.2733ZM84.3898 50.681L85.3344 50.1256L82.2931 44.9535L81.3485 45.5089L84.3898 50.681ZM85.3573 50.112L86.1906 49.612L83.1036 44.467L82.2703 44.9671L85.3573 50.112ZM85.85 49.7878L86.7392 49.3986L84.3335 43.902L83.4443 44.2912L85.85 49.7878ZM86.7931 49.3744L87.5157 49.041L85.002 43.5929L84.2795 43.9263L86.7931 49.3744ZM87.0327 49.2155L87.866 48.993L86.3184 43.196L85.485 43.4185L87.0327 49.2155ZM87.2788 49.0887L88.168 49.0332L87.7947 43.0449L86.9056 43.1003L87.2788 49.0887ZM87.5136 49.0024L88.5695 49.169L89.5051 43.2424L88.4491 43.0757L87.5136 49.0024ZM88.4088 49.1392L89.1867 49.3058L90.4437 43.439L89.6658 43.2723L88.4088 49.1392ZM88.5208 49.0787L89.7987 49.69L92.3877 44.2773L91.1097 43.6661L88.5208 49.0787ZM89.7516 49.667L91.3075 50.4449L93.9908 45.0783L92.4348 44.3004L89.7516 49.667ZM91.0103 50.2744L92.2887 51.1082L95.5664 46.0826L94.288 45.2488L91.0103 50.2744ZM92.4391 51.2001L93.6058 51.8668L96.5827 46.6574L95.4159 45.9906L92.4391 51.2001ZM93.9129 52.0197L95.08 52.5197L97.4428 47.0045L96.2757 46.5045L93.9129 52.0197ZM95.6725 52.7037L96.7837 52.9262L97.9616 47.043L96.8504 46.8205L95.6725 52.7037ZM97.1969 52.9795L98.1416 53.0349L98.493 47.0452L97.5484 46.9898L97.1969 52.9795ZM98.5305 53.0325L99.3085 52.977L98.882 46.9922L98.1041 47.0476L98.5305 53.0325ZM99.8853 52.8787L101.108 52.545L99.5277 46.7568L98.3052 47.0905L99.8853 52.8787ZM101.581 52.3721L103.137 51.6499L100.611 46.2075L99.0548 46.9297L101.581 52.3721ZM103.594 51.3864L104.705 50.6085L101.264 45.6932L100.153 46.4711L103.594 51.3864ZM105.106 50.2721L106.273 49.105L102.031 44.8623L100.864 46.0295L105.106 50.2721ZM106.552 48.7835L107.386 47.6723L102.585 44.0725L101.752 45.1838L106.552 48.7835ZM107.688 47.1739L108.411 45.6735L103.005 43.0704L102.283 44.5708L107.688 47.1739ZM108.575 45.2543L109.02 43.8096L103.285 42.0448L102.841 43.4895L108.575 45.2543ZM109.125 43.3325L109.292 42.11L103.347 41.2995L103.18 42.522L109.125 43.3325ZM109.319 41.7047V40.4268H103.319V41.7047H109.319ZM109.31 40.1957L109.255 39.4732L103.272 39.9353L103.328 40.6578L109.31 40.1957ZM109.236 39.2987L109.069 38.0762L103.124 38.8872L103.291 40.1098L109.236 39.2987ZM96.2758 3.03058C96.6856 3.07395 97.3349 3.37816 97.9242 4.44103C98.508 5.49413 98.8678 7.06185 98.6763 8.87376L104.643 9.50462C104.948 6.61631 104.422 3.78748 103.172 1.53187C101.927 -0.71396 99.7935 -2.63062 96.9073 -2.9361L96.2758 3.03058ZM98.6763 8.87353C98.4846 10.6854 97.8047 12.1431 97.0135 13.0507C96.2149 13.9667 95.5163 14.1283 95.1064 14.0849L94.4749 20.0516C97.3613 20.3571 99.8486 18.9292 101.536 16.9935C103.231 15.0494 104.337 12.3932 104.643 9.50485L98.6763 8.87353ZM95.1061 14.0849C94.6966 14.0416 94.0473 13.7376 93.4581 12.6746C92.8742 11.6215 92.5144 10.0536 92.7059 8.24172L86.7392 7.61087C86.4338 10.4992 86.96 13.3281 88.2105 15.5837C89.4555 17.8296 91.5888 19.7464 94.4752 20.0516L95.1061 14.0849ZM92.7059 8.24195C92.8976 6.43007 93.5775 4.97235 94.3688 4.06475C95.1673 3.14877 95.8659 2.98719 96.2758 3.03058L96.9073 -2.9361C94.0209 -3.2416 91.5337 -1.81376 89.8461 0.121943C88.1513 2.06604 87.0448 4.72229 86.7392 7.61064L92.7059 8.24195ZM83.2444 8.21845C83.4361 10.0303 83.0763 11.5981 82.4925 12.6511C81.9033 13.7139 81.254 14.018 80.8442 14.0614L81.475 20.0281C84.3616 19.723 86.495 17.8062 87.7401 15.5602C88.9906 13.3045 89.5167 10.4755 89.211 7.58714L83.2444 8.21845ZM80.8439 14.0614C80.434 14.1048 79.7355 13.9432 78.9371 13.0273C78.146 12.1197 77.4661 10.662 77.2744 8.85002L71.3077 9.48137C71.6133 12.3696 72.7196 15.0258 74.4143 16.9699C76.1018 18.9057 78.5889 20.3336 81.4754 20.0281L80.8439 14.0614ZM77.2744 8.85004C77.0827 7.03818 77.4425 5.47056 78.0262 4.41755C78.6154 3.35482 79.2648 3.05049 79.6749 3.00708L79.0433 -2.95959C76.1571 -2.6541 74.0238 -0.737573 72.7787 1.5084C71.5282 3.76408 71.0021 6.593 71.3077 9.48135L77.2744 8.85004ZM79.6745 3.00712C80.0845 2.96377 80.7833 3.12552 81.5818 4.04152C82.373 4.94912 83.0528 6.40669 83.2443 8.21825L89.2111 7.58735C88.9057 4.69908 87.7993 2.0429 86.1045 0.0988039C84.4171 -1.83688 81.93 -3.26475 79.0437 -2.95963L79.6745 3.00712ZM108.011 16.4416C108.422 16.5331 109.032 16.9121 109.496 18.0225C109.956 19.124 110.137 20.7056 109.745 22.4648L115.602 23.769C116.23 20.945 116.024 18.0852 115.033 15.7108C114.045 13.3453 112.14 11.2141 109.316 10.5851L108.011 16.4416ZM109.745 22.4646C109.353 24.2238 108.518 25.5792 107.634 26.3814C106.743 27.19 106.03 27.2743 105.619 27.1827L104.315 33.0392C107.139 33.6683 109.768 32.5471 111.667 30.8244C113.572 29.0951 114.973 26.5931 115.602 23.7692L109.745 22.4646ZM105.619 27.1828C105.208 27.0912 104.598 26.7122 104.134 25.6018C103.675 24.5004 103.494 22.9188 103.886 21.1597L98.0291 19.8551C97.4 22.6792 97.6063 25.5391 98.5976 27.9135C99.5852 30.279 101.49 32.4102 104.315 33.0392L105.619 27.1828ZM103.886 21.1595C104.277 19.4004 105.112 18.0451 105.996 17.2429C106.887 16.4342 107.601 16.3501 108.011 16.4415L109.316 10.5851C106.491 9.95596 103.862 11.0772 101.964 12.7999C100.058 14.5292 98.6579 17.0312 98.029 19.8554L103.886 21.1595ZM72.074 21.1595C72.4658 22.9188 72.2849 24.5004 71.825 25.6019C71.3614 26.7122 70.7512 27.0912 70.3403 27.1827L71.6445 33.0393C74.469 32.4103 76.3741 30.2791 77.3618 27.9136C78.3531 25.5392 78.5594 22.6793 77.9306 19.8554L72.074 21.1595ZM70.3402 27.1828C69.9295 27.2742 69.2163 27.1901 68.3253 26.3814C67.4414 25.5792 66.6064 24.2238 66.2145 22.4646L60.358 23.7692C60.9871 26.5931 62.3876 29.095 64.2928 30.8243C66.1909 32.547 68.8203 33.6683 71.6447 33.0392L70.3402 27.1828ZM66.2145 22.4648C65.8228 20.7055 66.0037 19.1239 66.4635 18.0224C66.9271 16.9119 67.5372 16.533 67.9479 16.4416L66.6435 10.5851C63.8192 11.2141 61.9142 13.3454 60.9267 15.7108C59.9354 18.0851 59.7291 20.945 60.358 23.7689L66.2145 22.4648ZM67.9479 16.4416C68.3589 16.35 69.0722 16.4343 69.9632 17.243C70.8471 18.0452 71.6822 19.4005 72.0741 21.1597L77.9305 19.8551C77.3014 17.0312 75.9009 14.5292 73.9956 12.8C72.0974 11.0772 69.468 9.956 66.6435 10.5851L67.9479 16.4416Z" fill="#0A0335" mask="url(#path-1-inside-1_171_449)"/>
</svg>
