<svg width="17" height="18" viewBox="0 0 17 18" fill="none" xmlns="http://www.w3.org/2000/svg">
<path d="M14.6649 13.0949L14.6082 12.9058L14.4948 12.6033L14.4192 12.4141L14.2112 12.036L13.9275 11.6767L13.5494 11.3364L13.1145 10.9392L12.7552 10.599L12.4149 10.2207L12.1312 9.84253L11.8665 9.44551L11.5829 8.91607L11.4126 8.55677L11.2046 8.15961L10.9399 7.72474L10.6375 7.32759L10.4294 7.11959L10.2214 6.93058L9.93773 6.72257L9.59744 6.57129L9.16257 6.42L8.72757 6.36328H8.27382L7.83882 6.42L7.21493 6.64686L6.60978 7.06286L6.21263 7.46001L5.9669 7.83815L5.72105 8.27302L5.39961 8.9349L5.09704 9.52104L4.75675 9.97488L4.34076 10.5043L3.11162 11.6388L2.99818 11.7334L2.7146 12.1305L2.48774 12.5843L2.35531 13.1516L2.27974 13.6621L2.26074 14.2294L2.31746 14.6076L2.48774 15.137L2.73346 15.6286L2.99818 15.969L3.33861 16.3093L3.79235 16.6119L4.3218 16.8578L4.71895 16.9523L5.3241 16.9712L5.91024 16.8388L6.26954 16.6686L6.4207 16.5552L6.76112 16.366L7.08256 16.177L7.36614 16.0069L7.66871 15.8745L7.91456 15.761L8.19814 15.6853L8.50071 15.6665L8.86001 15.7232L9.12473 15.7799L9.5596 15.9879L10.089 16.2526L10.5241 16.5363L10.9211 16.7632L11.3182 16.9333L11.6964 17.009L12.0178 17.0279L12.2825 17.009L12.6985 16.8955L13.228 16.6498L13.6061 16.385L14.0033 15.9879L14.2868 15.6097L14.5327 15.0992L14.684 14.6076L14.7407 14.1916V13.7567L14.7217 13.5109L14.6649 13.0949Z" fill="#E98B6E"/>
<path d="M11.4309 0.0159119C12.5524 0.134619 13.3246 1.52734 13.1555 3.12672C12.9862 4.7261 11.9398 5.92651 10.8181 5.80779C9.69657 5.68921 8.92445 4.29636 9.09355 2.69698C9.26277 1.0976 10.3092 -0.102808 11.4309 0.0159119Z" fill="#E98B6E"/>
<path d="M7.90341 2.68915C8.07264 4.28853 7.30053 5.68137 6.17886 5.79996C5.05719 5.91866 4.01086 4.71827 3.84162 3.11889C3.6724 1.5195 4.44451 0.126801 5.56618 0.00808051C6.68785 -0.110495 7.73431 1.0899 7.90341 2.68915Z" fill="#E98B6E"/>
<path d="M15.5381 4.59858C16.639 4.84378 17.2498 6.30692 16.9025 7.86646C16.5551 9.42604 15.3811 10.4916 14.2802 10.2464C13.1793 10.0012 12.5684 8.53806 12.9158 6.97852C13.2631 5.41895 14.4373 4.35337 15.5381 4.59858Z" fill="#E98B6E"/>
<path d="M4.08412 6.97852C4.4314 8.5381 3.82059 10.0012 2.71965 10.2464C1.61882 10.4916 0.444815 9.426 0.0973993 7.86646C-0.249882 6.30689 0.360931 4.84375 1.46174 4.59858C2.56267 4.35338 3.73671 5.41898 4.08412 6.97852Z" fill="#E98B6E"/>
</svg>
