<svg width="244" height="33" viewBox="0 0 244 33" fill="none" xmlns="http://www.w3.org/2000/svg">
<g opacity="0.3">
<path d="M17.4512 13.1651H23.4986V25.9111H18.7643V24.4095C17.1286 25.7365 14.9631 26.4 12.2677 26.4C10.0099 26.4 7.94806 25.9111 6.08199 24.9333C4.21593 23.9556 2.72999 22.5355 1.62417 20.673C0.541389 18.7873 0 16.5407 0 13.9333C0 11.419 0.575946 9.18413 1.72784 7.22857C2.87973 5.24974 4.48086 3.71323 6.53123 2.61905C8.5816 1.52487 10.8969 0.977778 13.4771 0.977778C15.7349 0.977778 17.7622 1.3619 19.5591 2.13016C21.3561 2.89841 22.8535 4.00423 24.0515 5.44762L19.6974 9.42857C18.0617 7.6127 16.1035 6.70476 13.8227 6.70476C11.7263 6.70476 10.0445 7.35662 8.77742 8.66032C7.53338 9.94074 6.91136 11.6868 6.91136 13.8984C6.91136 16.1333 7.49882 17.8444 8.67375 19.0317C9.84868 20.219 11.3346 20.8127 13.1316 20.8127C14.8594 20.8127 16.2993 20.3471 17.4512 19.4159V13.1651Z" fill="black"/>
<path d="M36.925 26.2254C34.9207 26.2254 33.1122 25.8064 31.4996 24.9683C29.8869 24.1302 28.6198 22.9661 27.6983 21.4762C26.7999 19.9862 26.3506 18.2984 26.3506 16.4127C26.3506 14.5503 26.7999 12.8741 27.6983 11.3841C28.6198 9.89418 29.8754 8.7418 31.465 7.92698C33.0777 7.08889 34.8977 6.66984 36.925 6.66984C38.9523 6.66984 40.7723 7.08889 42.385 7.92698C43.9976 8.7418 45.2532 9.89418 46.1517 11.3841C47.0501 12.8508 47.4994 14.527 47.4994 16.4127C47.4994 18.2984 47.0501 19.9862 46.1517 21.4762C45.2532 22.9661 43.9976 24.1302 42.385 24.9683C40.7723 25.8064 38.9523 26.2254 36.925 26.2254ZM36.925 20.9524C38.0769 20.9524 39.0214 20.5566 39.7587 19.7651C40.4959 18.9503 40.8645 17.8328 40.8645 16.4127C40.8645 15.0159 40.4959 13.9217 39.7587 13.1302C39.0214 12.3386 38.0769 11.9429 36.925 11.9429C35.7731 11.9429 34.8286 12.3386 34.0913 13.1302C33.3541 13.9217 32.9855 15.0159 32.9855 16.4127C32.9855 17.8328 33.3541 18.9503 34.0913 19.7651C34.8286 20.5566 35.7731 20.9524 36.925 20.9524Z" fill="black"/>
<path d="M57.8324 26.2254C55.5286 26.2254 53.7316 25.6317 52.4415 24.4444C51.1744 23.2339 50.5409 21.5111 50.5409 19.2762V0H57.1067V18.927C57.1067 19.6254 57.2795 20.1608 57.625 20.5333C57.9937 20.9058 58.5005 21.0921 59.1455 21.0921C59.6754 21.0921 60.1707 20.9757 60.6315 20.7429L60.9079 25.7365C59.9173 26.0624 58.8921 26.2254 57.8324 26.2254Z" fill="black"/>
<path d="M82.8307 0V25.9111H76.5759V24.0254C75.3549 25.4921 73.5234 26.2254 71.0814 26.2254C69.3766 26.2254 67.8215 25.8296 66.4162 25.0381C65.0109 24.2233 63.8936 23.0709 63.0642 21.581C62.2579 20.091 61.8547 18.3683 61.8547 16.4127C61.8547 14.4571 62.2579 12.746 63.0642 11.2794C63.8936 9.78942 65.0109 8.64868 66.4162 7.85714C67.8215 7.06561 69.3766 6.66984 71.0814 6.66984C73.3161 6.66984 75.0439 7.32169 76.2649 8.6254V0H82.8307ZM72.4637 20.9524C73.5925 20.9524 74.5256 20.5566 75.2628 19.7651C76 18.9503 76.3686 17.8328 76.3686 16.4127C76.3686 15.0159 76 13.9217 75.2628 13.1302C74.5486 12.3386 73.6156 11.9429 72.4637 11.9429C71.3118 11.9429 70.3672 12.3386 69.63 13.1302C68.8928 13.9217 68.5242 15.0159 68.5242 16.4127C68.5242 17.8328 68.8928 18.9503 69.63 19.7651C70.3672 20.5566 71.3118 20.9524 72.4637 20.9524Z" fill="black"/>
<path d="M97.0765 21.1619C97.9749 21.1619 98.7467 21.0339 99.3918 20.7778C100.06 20.5217 100.728 20.1026 101.396 19.5206L104.817 23.1524C103.043 25.2011 100.394 26.2254 96.8691 26.2254C94.6805 26.2254 92.7569 25.8064 91.0981 24.9683C89.4394 24.1302 88.1493 22.9661 87.2278 21.4762C86.3293 19.9862 85.8801 18.2984 85.8801 16.4127C85.8801 14.5503 86.3293 12.8857 87.2278 11.419C88.1263 9.9291 89.3588 8.76508 90.9254 7.92698C92.515 7.08889 94.2889 6.66984 96.2471 6.66984C98.0671 6.66984 99.7258 7.05397 101.223 7.82222C102.744 8.5672 103.953 9.67302 104.852 11.1397C105.75 12.5831 106.199 14.3058 106.199 16.3079L92.826 18.8921C93.5402 20.4053 94.957 21.1619 97.0765 21.1619ZM96.2817 11.3841C95.1528 11.3841 94.2313 11.745 93.5171 12.4667C92.8029 13.1651 92.3998 14.1778 92.3076 15.5048L99.9101 14.0032C99.6797 13.2116 99.242 12.5831 98.597 12.1175C97.9519 11.6286 97.1801 11.3841 96.2817 11.3841Z" fill="black"/>
<path d="M121.425 6.66984C123.752 6.66984 125.618 7.36826 127.023 8.76508C128.452 10.1619 129.166 12.2688 129.166 15.0857V25.9111H122.6V16.1683C122.6 13.5841 121.575 12.2921 119.525 12.2921C118.396 12.2921 117.486 12.6646 116.795 13.4095C116.127 14.1545 115.792 15.272 115.792 16.7619V25.9111H109.227V6.98413H115.481V9.04445C116.219 8.27619 117.094 7.69418 118.108 7.29841C119.121 6.87937 120.227 6.66984 121.425 6.66984Z" fill="black"/>
<path d="M133.599 1.46667H145.037C147.687 1.46667 150.037 1.9672 152.087 2.96825C154.137 3.96931 155.727 5.38942 156.856 7.22857C157.985 9.06773 158.549 11.2212 158.549 13.6889C158.549 16.1566 157.985 18.3101 156.856 20.1492C155.727 21.9884 154.137 23.4085 152.087 24.4095C150.037 25.4106 147.687 25.9111 145.037 25.9111H133.599V1.46667ZM144.761 20.3937C146.834 20.3937 148.493 19.8 149.737 18.6127C151.004 17.4254 151.638 15.7841 151.638 13.6889C151.638 11.5937 151.004 9.95238 149.737 8.76508C148.493 7.57778 146.834 6.98413 144.761 6.98413H140.441V20.3937H144.761Z" fill="black"/>
<path d="M171.237 26.2254C169.233 26.2254 167.425 25.8064 165.812 24.9683C164.199 24.1302 162.932 22.9661 162.011 21.4762C161.112 19.9862 160.663 18.2984 160.663 16.4127C160.663 14.5503 161.112 12.8741 162.011 11.3841C162.932 9.89418 164.188 8.7418 165.778 7.92698C167.39 7.08889 169.21 6.66984 171.237 6.66984C173.265 6.66984 175.085 7.08889 176.697 7.92698C178.31 8.7418 179.566 9.89418 180.464 11.3841C181.363 12.8508 181.812 14.527 181.812 16.4127C181.812 18.2984 181.363 19.9862 180.464 21.4762C179.566 22.9661 178.31 24.1302 176.697 24.9683C175.085 25.8064 173.265 26.2254 171.237 26.2254ZM171.237 20.9524C172.389 20.9524 173.334 20.5566 174.071 19.7651C174.808 18.9503 175.177 17.8328 175.177 16.4127C175.177 15.0159 174.808 13.9217 174.071 13.1302C173.334 12.3386 172.389 11.9429 171.237 11.9429C170.086 11.9429 169.141 12.3386 168.404 13.1302C167.667 13.9217 167.298 15.0159 167.298 16.4127C167.298 17.8328 167.667 18.9503 168.404 19.7651C169.141 20.5566 170.086 20.9524 171.237 20.9524Z" fill="black"/>
<path d="M205 6.98413V22.454C205 25.9693 204.055 28.6 202.166 30.346C200.277 32.1153 197.559 33 194.011 33C192.168 33 190.44 32.7905 188.827 32.3714C187.215 31.9524 185.844 31.3355 184.715 30.5206L187.1 25.8762C187.86 26.5048 188.816 26.9937 189.968 27.3429C191.143 27.7153 192.295 27.9016 193.423 27.9016C195.151 27.9016 196.418 27.5175 197.225 26.7492C198.031 25.981 198.434 24.8402 198.434 23.327V22.6984C197.167 24.1884 195.313 24.9333 192.871 24.9333C191.212 24.9333 189.68 24.5608 188.275 23.8159C186.869 23.0476 185.752 21.9767 184.923 20.6032C184.093 19.2064 183.678 17.6 183.678 15.7841C183.678 13.9915 184.093 12.4085 184.923 11.0349C185.752 9.6381 186.869 8.5672 188.275 7.82222C189.68 7.05397 191.212 6.66984 192.871 6.66984C195.543 6.66984 197.501 7.54286 198.745 9.28889V6.98413H205ZM194.426 19.6603C195.601 19.6603 196.568 19.2995 197.328 18.5778C198.112 17.8561 198.503 16.9249 198.503 15.7841C198.503 14.6434 198.123 13.7238 197.363 13.0254C196.603 12.3037 195.624 11.9429 194.426 11.9429C193.228 11.9429 192.237 12.3037 191.454 13.0254C190.693 13.7238 190.313 14.6434 190.313 15.7841C190.313 16.9249 190.705 17.8561 191.488 18.5778C192.272 19.2995 193.251 19.6603 194.426 19.6603Z" fill="black"/>
<path d="M241.441 22.5126L241.37 22.2796L241.228 21.9067L241.133 21.6735L240.873 21.2074L240.518 20.7646L240.045 20.3451L239.501 19.8556L239.052 19.4362L238.626 18.97L238.271 18.5039L237.94 18.0145L237.586 17.3619L237.373 16.9191L237.112 16.4296L236.781 15.8936L236.403 15.4041L236.143 15.1477L235.883 14.9147L235.528 14.6583L235.102 14.4719L234.558 14.2854L234.014 14.2155H233.447L232.903 14.2854L232.122 14.565L231.365 15.0778L230.869 15.5673L230.561 16.0334L230.254 16.5694L229.852 17.3852L229.473 18.1076L229.048 18.667L228.527 19.3196L226.99 20.7179L226.848 20.8344L226.494 21.3239L226.21 21.8832L226.044 22.5824L225.95 23.2118L225.926 23.911L225.997 24.3771L226.21 25.0296L226.517 25.6356L226.848 26.0552L227.274 26.4746L227.842 26.8475L228.504 27.1506L229 27.2671L229.757 27.2904L230.49 27.1271L230.94 26.9174L231.129 26.7776L231.555 26.5445L231.957 26.3115L232.311 26.1018L232.69 25.9386L232.997 25.7988L233.352 25.7055L233.731 25.6822L234.18 25.7521L234.511 25.822L235.055 26.0784L235.717 26.4047L236.261 26.7544L236.758 27.034L237.255 27.2437L237.728 27.337L238.13 27.3603L238.461 27.337L238.981 27.197L239.643 26.8942L240.116 26.5679L240.613 26.0784L240.968 25.6123L241.275 24.983L241.464 24.3771L241.535 23.8643V23.3283L241.512 23.0253L241.441 22.5126Z" fill="black"/>
<path d="M236.974 6.01031C238.319 6.16143 239.246 7.93442 239.043 9.97051C238.84 12.0066 237.584 13.5348 236.238 13.3836C234.893 13.2327 233.966 11.4595 234.169 9.42343C234.372 7.38735 235.628 5.85917 236.974 6.01031Z" fill="black"/>
<path d="M232.47 9.42342C232.673 11.4595 231.747 13.2327 230.401 13.3836C229.055 13.5348 227.8 12.0066 227.597 9.9705C227.394 7.9344 228.32 6.16142 229.666 6.01029C231.012 5.85933 232.267 7.3875 232.47 9.42342Z" fill="black"/>
<path d="M242.277 11.7962C243.574 12.1133 244.294 14.0053 243.885 16.0219C243.476 18.0386 242.092 19.4165 240.794 19.0994C239.496 18.7823 238.776 16.8903 239.186 14.8737C239.595 12.857 240.979 11.4792 242.277 11.7962Z" fill="black"/>
<path d="M228.257 14.8737C228.734 16.8904 227.894 18.7824 226.38 19.0994C224.866 19.4165 223.251 18.0385 222.774 16.0219C222.296 14.0052 223.136 12.1133 224.65 11.7962C226.164 11.4792 227.779 12.8571 228.257 14.8737Z" fill="black"/>
</g>
</svg>
