<svg width="162" height="50" viewBox="0 0 162 50" fill="none" xmlns="http://www.w3.org/2000/svg">
<g opacity="0.3">
<path d="M22.5402 42.6239C20.9545 42.6239 18.6325 41.798 15.5743 40.1464C12.5538 38.4947 10.7982 37.6126 10.3073 37.5C8.042 40.4655 5.92767 41.9482 3.96436 41.9482C3.43578 41.9482 2.64291 41.2162 1.58575 39.7523C0.528582 38.2883 0 36.9182 0 35.6419C0 35.0788 0.585216 34.3844 1.75565 33.5586C2.92608 32.6952 4.26641 32.0946 5.77664 31.7568C6.79605 29.3919 7.79658 25.8071 8.77823 21.0023C9.79764 16.1974 10.3073 11.9745 10.3073 8.33333C10.3073 7.73273 10.0997 7.05706 9.68437 6.30631C9.30682 5.55556 8.92926 4.95495 8.5517 4.5045L7.92873 3.82883L8.09863 2.7027C10.1752 1.76426 14.4794 1.29505 21.0111 1.29505C21.6152 2.23348 21.9173 3.82883 21.9173 6.08108C21.9173 8.33334 20.9167 12.2372 18.9157 17.7928C16.9146 23.3483 14.9136 28.1719 12.9125 32.2635C16.6881 33.2395 20.2938 33.7275 23.7295 33.7275C24.5224 33.7275 25.1643 33.5398 25.6551 33.1644C26.1837 32.789 26.75 32.0008 27.3541 30.7995L30.469 31.8694C29.8649 35.4354 28.9399 38.1194 27.6939 39.9212C26.4857 41.723 24.7678 42.6239 22.5402 42.6239Z" fill="black"/>
<path d="M31.4552 31.3063C31.4552 26.5015 32.871 22.8041 35.7027 20.214C38.5722 17.6239 42.1401 16.3288 46.4065 16.3288C49.2382 16.3288 51.5224 16.967 53.2592 18.2432C55.0337 19.482 55.921 21.1336 55.921 23.1982C55.921 24.6997 55.449 26.0511 54.5051 27.2523C53.5612 28.4535 52.4097 29.3731 51.0505 30.0113C48.3321 31.2875 45.8402 32.0758 43.5748 32.3761L42.159 32.6014C42.5743 35.0788 43.858 36.3176 46.0101 36.3176C46.8407 36.3176 47.7846 36.1299 48.8418 35.7545C49.9367 35.3416 50.8239 34.9287 51.5035 34.5158L52.4663 33.9527L54.2786 36.3739C54.2786 36.3739 54.0709 36.5803 53.6556 36.9932C53.4291 37.2185 52.8816 37.6689 52.0132 38.3446C51.1826 38.9827 50.2954 39.5458 49.3515 40.0338C46.9351 41.3101 44.2355 41.9482 41.2528 41.9482C38.2701 41.9482 35.8915 41.0285 34.117 39.1892C32.3424 37.3498 31.4552 34.7222 31.4552 31.3063ZM46.8596 21.7342C46.8596 20.8709 46.5198 20.4392 45.8402 20.4392C44.934 20.4392 44.0845 21.1899 43.2916 22.6914C42.4988 24.1554 42.0457 26.22 41.9324 28.8851C43.0274 28.735 44.1223 27.8529 45.2172 26.2387C46.3121 24.5871 46.8596 23.0856 46.8596 21.7342ZM55.9776 6.70045C55.9776 8.01426 55.2791 8.97147 53.8822 9.57207C51.7678 10.548 46.8596 11.7117 39.1574 13.0631L38.1946 10.2477C42.8386 7.9955 48.0111 5.06757 53.7123 1.46397C54.1276 2.02703 54.5995 2.90916 55.1281 4.11036C55.6944 5.31156 55.9776 6.17493 55.9776 6.70045Z" fill="black"/>
<path d="M71.4683 41.9482C67.3906 41.9482 64.087 40.4842 61.5574 37.5563C59.0277 34.6284 57.7629 30.518 57.7629 25.2252C57.7629 20.9835 58.5746 17.0608 60.1981 13.4572C61.8594 9.81607 64.238 6.88814 67.334 4.67342C70.4677 2.42117 73.828 1.29505 77.4148 1.29505C81.0394 1.29505 84.0221 2.00826 86.363 3.43468C88.7416 4.86111 89.9309 6.73799 89.9309 9.06532C89.9309 11.3551 89.289 13.1757 88.0053 14.527C86.4951 14.527 84.7583 14.2267 82.795 13.6261C80.8317 13.0255 79.3592 12.2935 78.3776 11.4302L79.4536 5.96847C78.6608 5.59309 77.8868 5.40541 77.1316 5.40541C74.9418 5.40541 73.0163 7.30105 71.355 11.0923C69.6937 14.8461 68.8631 19.2568 68.8631 24.3243C68.8631 31.9069 71.0152 35.6982 75.3194 35.6982C77.8868 35.6982 80.7562 34.3093 83.9277 31.5315L86.5895 34.1779C86.2874 34.6659 85.5134 35.473 84.2675 36.5991C83.0216 37.6877 81.8322 38.5698 80.6996 39.2455C79.6047 39.9212 78.2077 40.5405 76.5087 41.1036C74.8474 41.6667 73.1673 41.9482 71.4683 41.9482Z" fill="black"/>
<path d="M117.122 18.4685C116.329 20.9084 115.65 23.8176 115.083 27.1959C114.517 30.5368 114.234 32.8829 114.234 34.2342C114.234 35.548 114.441 36.205 114.857 36.205L117.688 35.4167L118.708 38.232C117.5 39.1704 115.952 40.0338 114.064 40.8221C112.214 41.5728 110.572 41.9482 109.137 41.9482C106.683 41.9482 105.135 40.8971 104.493 38.795C101.51 40.8971 98.8672 41.9482 96.5641 41.9482C94.2988 41.9482 92.5431 41.1224 91.2972 39.4707C90.0512 37.8191 89.4282 35.4542 89.4282 32.3761C89.4282 28.1344 90.5232 24.3994 92.713 21.1712C94.9028 17.9429 97.7912 16.3288 101.378 16.3288C103.341 16.3288 105.342 16.8731 107.381 17.9617C107.683 17.286 107.929 16.798 108.117 16.4977C110.836 16.4977 113.837 17.1547 117.122 18.4685ZM100.075 31.7005C100.075 33.5773 100.208 34.7598 100.472 35.2477C100.736 35.7357 101.227 35.9797 101.944 35.9797C102.662 35.9797 103.36 35.6982 104.04 35.1351C104.191 30.7808 104.908 26.22 106.192 21.4527C105.626 21.1149 104.965 20.9459 104.21 20.9459C103.492 20.9459 102.832 21.3589 102.227 22.1847C101.661 23.0105 101.227 24.0428 100.925 25.2815C100.359 27.6464 100.075 29.786 100.075 31.7005Z" fill="black"/>
<path d="M138.147 21.3401L133.164 20.9459C132.824 27.2898 132.069 33.3521 130.898 39.1329C129.766 44.9137 128.633 48.536 127.5 50C125.613 49.9625 123.781 49.7372 122.007 49.3243C120.232 48.9489 119.024 48.5736 118.382 48.1982C119.817 43.3934 120.836 39.2455 121.44 35.7545C122.045 32.226 122.649 27.3649 123.253 21.1712L119.515 21.5653C119.364 20.8521 119.288 20.1389 119.288 19.4257C119.288 18.6749 119.383 17.8679 119.572 17.0045H123.649C124.216 11.4114 125.008 7.63889 126.028 5.68694C127.349 3.09685 128.935 1.4452 130.785 0.731983C131.918 0.243995 133.352 0 135.089 0C136.826 0 138.28 0.506758 139.45 1.52027C140.658 2.49625 141.262 3.82883 141.262 5.51802C141.262 7.16967 140.488 9.08408 138.94 11.2613C137.392 13.4384 135.523 15.3529 133.334 17.0045H139.054C139.054 18.6937 138.752 20.1389 138.147 21.3401ZM136.505 4.22297C134.919 4.22297 133.919 6.98198 133.503 12.5C134.825 11.4489 135.882 10.3041 136.675 9.06532C137.506 7.78904 137.921 6.66291 137.921 5.68694C137.921 4.71096 137.449 4.22297 136.505 4.22297Z" fill="black"/>
<path d="M137.478 31.3063C137.478 26.5015 138.893 22.8041 141.725 20.214C144.595 17.6239 148.162 16.3288 152.429 16.3288C155.261 16.3288 157.545 16.967 159.282 18.2432C161.056 19.482 161.943 21.1336 161.943 23.1982C161.943 24.6997 161.471 26.0511 160.528 27.2523C159.584 28.4535 158.432 29.3731 157.073 30.0113C154.354 31.2875 151.863 32.0758 149.597 32.3761L148.181 32.6014C148.597 35.0788 149.88 36.3176 152.032 36.3176C152.863 36.3176 153.807 36.1299 154.864 35.7545C155.959 35.3416 156.846 34.9287 157.526 34.5158L158.489 33.9527L160.301 36.3739C160.301 36.3739 160.093 36.5803 159.678 36.9932C159.451 37.2185 158.904 37.6689 158.036 38.3446C157.205 38.9827 156.318 39.5458 155.374 40.0338C152.957 41.3101 150.258 41.9482 147.275 41.9482C144.293 41.9482 141.914 41.0285 140.139 39.1892C138.365 37.3498 137.478 34.7222 137.478 31.3063ZM152.882 21.7342C152.882 20.8709 152.542 20.4392 151.863 20.4392C150.956 20.4392 150.107 21.1899 149.314 22.6914C148.521 24.1554 148.068 26.22 147.955 28.8851C149.05 28.735 150.145 27.8529 151.24 26.2387C152.335 24.5871 152.882 23.0856 152.882 21.7342ZM162 6.70045C162 8.01426 161.302 8.97147 159.905 9.57207C157.79 10.548 152.882 11.7117 145.18 13.0631L144.217 10.2477C148.861 7.9955 154.034 5.06757 159.735 1.46397C160.15 2.02703 160.622 2.90916 161.15 4.11036C161.717 5.31156 162 6.17493 162 6.70045Z" fill="black"/>
</g>
</svg>
