<svg width="158" height="46" viewBox="0 0 158 46" fill="none" xmlns="http://www.w3.org/2000/svg">
<g opacity="0.3">
<path d="M12.7322 8.03017C16.6933 8.03017 19.7889 9.2694 22.0191 11.7478C24.2493 14.1932 25.3644 17.597 25.3644 21.9591C25.3644 24.7349 24.8485 27.1803 23.8166 29.2953C22.818 31.3772 21.3534 32.9964 19.4228 34.153C17.5254 35.3096 15.2786 35.8879 12.6822 35.8879C8.72111 35.8879 5.6088 34.6652 3.34531 32.2198C1.1151 29.7414 0 26.3211 0 21.9591C0 19.1832 0.4993 16.7543 1.4979 14.6724C2.52979 12.5575 3.9944 10.9217 5.89174 9.76508C7.82237 8.60848 10.1025 8.03017 12.7322 8.03017ZM12.7322 13.2845C10.9347 13.2845 9.58656 13.995 8.68782 15.4159C7.82237 16.8039 7.38964 18.9849 7.38964 21.9591C7.38964 24.9332 7.82237 27.1307 8.68782 28.5517C9.58656 29.9397 10.918 30.6336 12.6822 30.6336C14.4464 30.6336 15.7612 29.9397 16.6267 28.5517C17.5254 27.1307 17.9748 24.9332 17.9748 21.9591C17.9748 18.9849 17.5421 16.8039 16.6766 15.4159C15.8112 13.995 14.4963 13.2845 12.7322 13.2845Z" fill="black"/>
<path d="M45.5354 8.03017C47.8655 8.03017 49.6796 8.74066 50.9778 10.1616C52.2759 11.5496 52.925 13.4828 52.925 15.9612V35.0948H45.835V17.1509C45.835 15.7299 45.5853 14.7385 45.086 14.1767C44.62 13.5819 43.9043 13.2845 42.939 13.2845C41.9404 13.2845 41.025 13.5984 40.1929 14.2263C39.394 14.8211 38.6118 15.7299 37.8462 16.9526V35.0948H30.7561V8.82327H36.8975L37.4467 12.1444C38.5452 10.7895 39.7435 9.76508 41.0417 9.07112C42.3732 8.37715 43.8711 8.03017 45.5354 8.03017Z" fill="black"/>
<path d="M83.3375 10.2608C81.6066 10.9217 79.0601 11.2522 75.6982 11.2522C77.3625 11.9792 78.5941 12.8879 79.393 13.9784C80.1919 15.0359 80.5913 16.3743 80.5913 17.9935C80.5913 19.6789 80.142 21.199 79.2432 22.5539C78.3778 23.8757 77.1129 24.9167 75.4485 25.6767C73.8175 26.4368 71.9035 26.8168 69.7066 26.8168C68.5415 26.8168 67.5097 26.7011 66.6109 26.4698C65.9452 26.8994 65.6123 27.4777 65.6123 28.2047C65.6123 28.7335 65.812 29.1631 66.2115 29.4935C66.6442 29.7909 67.4597 29.9397 68.6581 29.9397H72.7024C74.6663 29.9397 76.3806 30.2701 77.8452 30.931C79.3431 31.5589 80.4915 32.4511 81.2903 33.6078C82.1225 34.7313 82.5386 36.0201 82.5386 37.4741C82.5386 40.1509 81.3736 42.2328 79.0435 43.7198C76.7467 45.2399 73.418 46 69.0575 46C65.9285 46 63.4487 45.6695 61.6179 45.0086C59.8204 44.3807 58.5555 43.4555 57.8232 42.2328C57.0909 41.0101 56.7248 39.4734 56.7248 37.6228H63.0659C63.0659 38.482 63.2323 39.1595 63.5652 39.6552C63.8981 40.1839 64.4972 40.5639 65.3627 40.7953C66.2614 41.0596 67.5429 41.1918 69.2073 41.1918C71.5041 41.1918 73.1018 40.9109 74.0006 40.3491C74.9326 39.7874 75.3986 38.9943 75.3986 37.9698C75.3986 37.0445 75.0491 36.3341 74.3501 35.8384C73.6511 35.3427 72.6192 35.0948 71.2544 35.0948H67.3599C64.7302 35.0948 62.7663 34.6157 61.4681 33.6573C60.1699 32.6659 59.5209 31.4267 59.5209 29.9397C59.5209 29.0144 59.7872 28.1221 60.3197 27.2629C60.8856 26.3707 61.6512 25.6272 62.6165 25.0323C60.9855 24.1401 59.7871 23.0991 59.0216 21.9095C58.2892 20.6868 57.9231 19.2328 57.9231 17.5474C57.9231 15.6307 58.3891 13.9619 59.3211 12.5409C60.2864 11.0869 61.6179 9.97989 63.3155 9.21983C65.0464 8.42672 67.0104 8.03017 69.2073 8.03017C71.9368 8.09626 74.1836 7.86494 75.9478 7.33621C77.712 6.80747 79.5927 5.98132 81.5899 4.85776L83.3375 10.2608ZM69.3571 12.7392C68.0256 12.7392 66.9604 13.1688 66.1616 14.028C65.396 14.8542 65.0132 15.9943 65.0132 17.4483C65.0132 18.9353 65.396 20.1085 66.1616 20.9677C66.9604 21.8269 68.0422 22.2565 69.407 22.2565C70.8383 22.2565 71.9201 21.8434 72.6525 21.0172C73.3848 20.1911 73.7509 18.9684 73.7509 17.3491C73.7509 14.2759 72.2863 12.7392 69.3571 12.7392Z" fill="black"/>
<path d="M100.611 0C102.774 0 104.655 0.313937 106.253 0.94181C107.85 1.53664 109.415 2.46193 110.946 3.71767L107.301 7.93103C105.304 6.31178 103.207 5.50216 101.01 5.50216C98.5467 5.50216 96.5828 6.51006 95.1182 8.52586C93.6869 10.5086 92.9712 13.6315 92.9712 17.8944C92.9712 22.0582 93.6869 25.148 95.1182 27.1638C96.5828 29.1466 98.5634 30.1379 101.06 30.1379C102.358 30.1379 103.54 29.9066 104.605 29.444C105.67 28.9483 106.785 28.2543 107.95 27.3621L111.345 31.5754C110.114 32.8312 108.583 33.8721 106.752 34.6983C104.954 35.4914 102.957 35.8879 100.76 35.8879C97.6647 35.8879 94.9518 35.194 92.6217 33.806C90.2917 32.4181 88.4775 30.3858 87.1794 27.7091C85.8812 24.9993 85.2321 21.7277 85.2321 17.8944C85.2321 14.1602 85.8978 10.9547 87.2293 8.27802C88.5607 5.56825 90.3915 3.5194 92.7216 2.13146C95.0517 0.710488 97.6813 0 100.611 0Z" fill="black"/>
<path d="M135.088 27.8082C135.088 28.8326 135.238 29.5927 135.538 30.0884C135.837 30.551 136.337 30.898 137.036 31.1293L135.538 35.7888C133.973 35.6566 132.692 35.2931 131.693 34.6983C130.728 34.1035 129.979 33.1782 129.446 31.9224C127.715 34.5661 125.069 35.8879 121.507 35.8879C118.878 35.8879 116.781 35.1444 115.216 33.6573C113.685 32.1372 112.919 30.171 112.919 27.7586C112.919 24.8836 113.968 22.6861 116.065 21.1659C118.162 19.6458 121.175 18.8858 125.102 18.8858H128.148V17.597C128.148 15.9777 127.782 14.8542 127.05 14.2263C126.317 13.5984 125.102 13.2845 123.405 13.2845C121.541 13.2845 119.211 13.7471 116.415 14.6724L114.817 9.96336C118.112 8.67457 121.374 8.03017 124.603 8.03017C128.198 8.03017 130.844 8.80675 132.542 10.3599C134.24 11.88 135.088 14.1602 135.088 17.2004V27.8082ZM123.455 30.8319C125.452 30.8319 127.016 29.857 128.148 27.9073V22.9009H125.801C121.973 22.9009 120.059 24.3218 120.059 27.1638C120.059 28.3204 120.342 29.2292 120.908 29.8901C121.507 30.518 122.356 30.8319 123.455 30.8319Z" fill="black"/>
<path d="M158 33.8556C157.035 34.5165 155.936 35.0122 154.705 35.3427C153.506 35.7062 152.308 35.8879 151.11 35.8879C148.38 35.8549 146.316 35.0783 144.918 33.5582C143.52 32.0381 142.821 29.8075 142.821 26.8664V13.7802H138.877V8.82327H142.821V3.07327L149.911 2.2306V8.82327H156.003L155.304 13.7802H149.911V26.7177C149.911 27.9734 150.128 28.8822 150.56 29.444C150.993 30.0057 151.659 30.2866 152.558 30.2866C153.456 30.2866 154.455 29.9892 155.553 29.3944L158 33.8556Z" fill="black"/>
</g>
</svg>
