<svg width="161" height="43" viewBox="0 0 161 43" fill="none" xmlns="http://www.w3.org/2000/svg">
<g opacity="0.3">
<path d="M11.909 6.88377C15.614 6.88377 18.5095 8.0625 20.5955 10.42C22.6815 12.746 23.7245 15.9836 23.7245 20.1327C23.7245 22.773 23.2419 25.099 22.2767 27.1107C21.3427 29.091 19.9728 30.6312 18.167 31.7314C16.3923 32.8315 14.2907 33.3816 11.8623 33.3816C8.15724 33.3816 5.24617 32.2186 3.12902 29.8925C1.04301 27.5351 0 24.2818 0 20.1327C0 17.4923 0.467018 15.182 1.40105 13.2018C2.36622 11.1901 3.73614 9.63414 5.51081 8.53399C7.31661 7.43385 9.44933 6.88377 11.909 6.88377ZM11.909 11.8816C10.2277 11.8816 8.96674 12.5574 8.12611 13.909C7.31661 15.2292 6.91186 17.3037 6.91186 20.1327C6.91186 22.9616 7.31661 25.0519 8.12611 26.4035C8.96674 27.7237 10.2121 28.3838 11.8623 28.3838C13.5124 28.3838 14.7422 27.7237 15.5517 26.4035C16.3923 25.0519 16.8126 22.9616 16.8126 20.1327C16.8126 17.3037 16.4079 15.2292 15.5984 13.909C14.7889 12.5574 13.5591 11.8816 11.909 11.8816Z" fill="black"/>
<path d="M42.5913 6.88377C44.7707 6.88377 46.4675 7.55958 47.6818 8.91118C48.896 10.2314 49.5032 12.0702 49.5032 14.4276V32.6272H42.8715V15.5592C42.8715 14.2076 42.638 13.2646 42.171 12.7303C41.7351 12.1645 41.0657 11.8816 40.1628 11.8816C39.2288 11.8816 38.3726 12.1802 37.5942 12.7774C36.847 13.3432 36.1153 14.2076 35.3992 15.3706V32.6272H28.7676V7.63816H34.5119L35.0256 10.7971C36.053 9.50841 37.1739 8.53399 38.3881 7.8739C39.6335 7.21382 41.0346 6.88377 42.5913 6.88377Z" fill="black"/>
<path d="M77.9493 9.00548C76.3303 9.63414 73.9485 9.94846 70.8039 9.94846C72.3606 10.64 73.5126 11.5044 74.2598 12.5417C75.0071 13.5475 75.3807 14.8205 75.3807 16.3607C75.3807 17.9638 74.9604 19.4097 74.1197 20.6985C73.3102 21.9558 72.1271 22.9459 70.5704 23.6689C69.0448 24.3918 67.2546 24.7533 65.1997 24.7533C64.11 24.7533 63.1448 24.6433 62.3042 24.4232C61.6815 24.8319 61.3701 25.3819 61.3701 26.0735C61.3701 26.5764 61.557 26.985 61.9306 27.2993C62.3353 27.5822 63.0981 27.7237 64.219 27.7237H68.0018C69.8387 27.7237 71.4422 28.038 72.8121 28.6667C74.2131 29.2639 75.2873 30.1126 76.0345 31.2127C76.8129 32.2814 77.202 33.5073 77.202 34.8904C77.202 37.4364 76.1123 39.4167 73.9329 40.8311C71.7846 42.2771 68.6712 43 64.5926 43C61.6659 43 59.3464 42.6857 57.634 42.057C55.9527 41.4598 54.7696 40.5797 54.0847 39.4167C53.3997 38.2537 53.0572 36.792 53.0572 35.0318H58.9884C58.9884 35.849 59.144 36.4934 59.4554 36.9649C59.7667 37.4678 60.3271 37.8293 61.1366 38.0493C61.9773 38.3008 63.1759 38.4265 64.7327 38.4265C66.881 38.4265 68.3754 38.1594 69.216 37.625C70.0878 37.0906 70.5237 36.3363 70.5237 35.3618C70.5237 34.4817 70.1968 33.8059 69.543 33.3344C68.8891 32.8629 67.924 32.6272 66.6474 32.6272H63.0047C60.5451 32.6272 58.7081 32.1714 57.4939 31.2599C56.2797 30.3169 55.6725 29.1382 55.6725 27.7237C55.6725 26.8436 55.9216 25.9949 56.4198 25.1776C56.949 24.3289 57.6651 23.6217 58.568 23.0559C57.0424 22.2072 55.9216 21.2171 55.2055 20.0855C54.5205 18.9225 54.1781 17.5395 54.1781 15.9364C54.1781 14.1133 54.614 12.5259 55.4857 11.1743C56.3886 9.7913 57.634 8.73831 59.2219 8.01535C60.8409 7.26097 62.6778 6.88377 64.7327 6.88377C67.2857 6.94664 69.3873 6.72661 71.0374 6.22369C72.6875 5.72076 74.4466 4.93494 76.3147 3.86623L77.9493 9.00548ZM64.8728 11.3629C63.6274 11.3629 62.6311 11.7716 61.8839 12.5888C61.1678 13.3746 60.8097 14.4591 60.8097 15.8421C60.8097 17.2566 61.1678 18.3724 61.8839 19.1897C62.6311 20.0069 63.643 20.4156 64.9195 20.4156C66.2583 20.4156 67.2701 20.0227 67.9551 19.2368C68.6401 18.451 68.9825 17.288 68.9825 15.7478C68.9825 12.8246 67.6126 11.3629 64.8728 11.3629Z" fill="black"/>
<path d="M89.809 0C94.8528 0 98.8847 1.16301 101.905 3.48904C104.956 5.78363 106.482 10.0113 106.482 16.1721C106.482 22.2072 104.987 26.4664 101.998 28.9496C99.0404 31.4013 95.242 32.6272 90.6029 32.6272H81.356V0H89.809ZM88.2211 5.0921V27.5351H91.0232C93.6697 27.5351 95.709 26.7178 97.1412 25.0833C98.6045 23.4174 99.3361 20.447 99.3361 16.1721C99.3361 13.2175 98.9625 10.9229 98.2153 9.28838C97.4992 7.65387 96.534 6.55373 95.3198 5.98794C94.1055 5.39072 92.6266 5.0921 90.8831 5.0921H88.2211Z" fill="black"/>
<path d="M122.005 6.88377C125.71 6.88377 128.605 8.0625 130.691 10.42C132.777 12.746 133.82 15.9836 133.82 20.1327C133.82 22.773 133.338 25.099 132.373 27.1107C131.439 29.091 130.069 30.6312 128.263 31.7314C126.488 32.8315 124.387 33.3816 121.958 33.3816C118.253 33.3816 115.342 32.2186 113.225 29.8925C111.139 27.5351 110.096 24.2818 110.096 20.1327C110.096 17.4923 110.563 15.182 111.497 13.2018C112.462 11.1901 113.832 9.63414 115.607 8.53399C117.412 7.43385 119.545 6.88377 122.005 6.88377ZM122.005 11.8816C120.323 11.8816 119.063 12.5574 118.222 13.909C117.412 15.2292 117.008 17.3037 117.008 20.1327C117.008 22.9616 117.412 25.0519 118.222 26.4035C119.063 27.7237 120.308 28.3838 121.958 28.3838C123.608 28.3838 124.838 27.7237 125.647 26.4035C126.488 25.0519 126.908 22.9616 126.908 20.1327C126.908 17.3037 126.504 15.2292 125.694 13.909C124.885 12.5574 123.655 11.8816 122.005 11.8816Z" fill="black"/>
<path d="M161 9.00548C159.381 9.63414 156.999 9.94846 153.855 9.94846C155.411 10.64 156.563 11.5044 157.311 12.5417C158.058 13.5475 158.431 14.8205 158.431 16.3607C158.431 17.9638 158.011 19.4097 157.17 20.6985C156.361 21.9558 155.178 22.9459 153.621 23.6689C152.096 24.3918 150.305 24.7533 148.25 24.7533C147.161 24.7533 146.196 24.6433 145.355 24.4232C144.732 24.8319 144.421 25.3819 144.421 26.0735C144.421 26.5764 144.608 26.985 144.981 27.2993C145.386 27.5822 146.149 27.7237 147.27 27.7237H151.053C152.889 27.7237 154.493 28.038 155.863 28.6667C157.264 29.2639 158.338 30.1126 159.085 31.2127C159.864 32.2814 160.253 33.5073 160.253 34.8904C160.253 37.4364 159.163 39.4167 156.984 40.8311C154.835 42.2771 151.722 43 147.643 43C144.717 43 142.397 42.6857 140.685 42.057C139.003 41.4598 137.82 40.5797 137.135 39.4167C136.45 38.2537 136.108 36.792 136.108 35.0318H142.039C142.039 35.849 142.195 36.4934 142.506 36.9649C142.817 37.4678 143.378 37.8293 144.187 38.0493C145.028 38.3008 146.227 38.4265 147.783 38.4265C149.932 38.4265 151.426 38.1594 152.267 37.625C153.139 37.0906 153.574 36.3363 153.574 35.3618C153.574 34.4817 153.248 33.8059 152.594 33.3344C151.94 32.8629 150.975 32.6272 149.698 32.6272H146.055C143.596 32.6272 141.759 32.1714 140.545 31.2599C139.33 30.3169 138.723 29.1382 138.723 27.7237C138.723 26.8436 138.972 25.9949 139.47 25.1776C140 24.3289 140.716 23.6217 141.619 23.0559C140.093 22.2072 138.972 21.2171 138.256 20.0855C137.571 18.9225 137.229 17.5395 137.229 15.9364C137.229 14.1133 137.665 12.5259 138.536 11.1743C139.439 9.7913 140.685 8.73831 142.273 8.01535C143.892 7.26097 145.729 6.88377 147.783 6.88377C150.336 6.94664 152.438 6.72661 154.088 6.22369C155.738 5.72076 157.497 4.93494 159.365 3.86623L161 9.00548ZM147.923 11.3629C146.678 11.3629 145.682 11.7716 144.935 12.5888C144.218 13.3746 143.86 14.4591 143.86 15.8421C143.86 17.2566 144.218 18.3724 144.935 19.1897C145.682 20.0069 146.694 20.4156 147.97 20.4156C149.309 20.4156 150.321 20.0227 151.006 19.2368C151.691 18.451 152.033 17.288 152.033 15.7478C152.033 12.8246 150.663 11.3629 147.923 11.3629Z" fill="black"/>
</g>
</svg>
