<svg width="166" height="30" viewBox="0 0 166 30" fill="none" xmlns="http://www.w3.org/2000/svg">
<g opacity="0.3">
<path d="M10.9059 29.9163C8.85668 29.9163 7.00394 29.5676 5.3477 28.8703C3.71953 28.1729 2.42822 27.1688 1.47377 25.8577C0.51933 24.5467 0.0280719 22.9986 0 21.2134H6.31618C6.40039 22.4128 6.82147 23.3612 7.57941 24.0586C8.36543 24.7559 9.43216 25.1046 10.7796 25.1046C12.1551 25.1046 13.2359 24.7838 14.0219 24.1423C14.8079 23.4728 15.2009 22.6081 15.2009 21.5481C15.2009 20.6834 14.9343 19.9721 14.4009 19.4142C13.8675 18.8563 13.1938 18.424 12.3797 18.1172C11.5937 17.7824 10.4989 17.4198 9.0953 17.0293C7.18641 16.4714 5.62842 15.9275 4.42132 15.3975C3.2423 14.8396 2.21768 14.0167 1.34745 12.9289C0.505294 11.8131 0.0842157 10.3347 0.0842157 8.49372C0.0842157 6.76429 0.51933 5.25802 1.38956 3.97489C2.25979 2.69177 3.48092 1.71548 5.05294 1.04602C6.62497 0.348674 8.42157 0 10.4427 0C13.4745 0 15.9308 0.73919 17.8116 2.21757C19.7205 3.66806 20.7732 5.70432 20.9697 8.32636H14.4851C14.429 7.32218 13.9938 6.4993 13.1798 5.85774C12.3937 5.18829 11.341 4.85356 10.0217 4.85356C8.87072 4.85356 7.94435 5.14644 7.24255 5.73221C6.56882 6.31799 6.23196 7.16876 6.23196 8.28452C6.23196 9.06555 6.48461 9.72106 6.9899 10.251C7.52327 10.7531 8.16892 11.1715 8.92686 11.5063C9.71288 11.8131 10.8077 12.1757 12.2113 12.5941C14.1202 13.152 15.6782 13.7099 16.8852 14.2678C18.0923 14.8257 19.131 15.6625 20.0012 16.7782C20.8715 17.894 21.3066 19.3584 21.3066 21.1715C21.3066 22.7336 20.8995 24.1841 20.0854 25.523C19.2714 26.8619 18.0783 27.9358 16.5063 28.7448C14.9343 29.5258 13.0675 29.9163 10.9059 29.9163Z" fill="black"/>
<path d="M48.103 17.5314C48.103 18.3682 48.0468 19.1213 47.9345 19.7908H30.8808C31.0212 21.4644 31.6107 22.7755 32.6494 23.7239C33.688 24.6722 34.9653 25.1464 36.4812 25.1464C38.6708 25.1464 40.2288 24.212 41.1552 22.3431H47.5134C46.8397 24.5746 45.5484 26.4156 43.6395 27.8661C41.7306 29.2887 39.3866 30 36.6075 30C34.3618 30 32.3406 29.5119 30.544 28.5356C28.7755 27.5314 27.3859 26.1227 26.3753 24.3096C25.3928 22.4965 24.9015 20.4045 24.9015 18.0335C24.9015 15.6346 25.3928 13.5286 26.3753 11.7155C27.3578 9.90237 28.7333 8.50767 30.5019 7.53138C32.2704 6.55509 34.3056 6.06694 36.6075 6.06694C38.8252 6.06694 40.8043 6.54114 42.5447 7.48954C44.3133 8.43793 45.6747 9.79079 46.6292 11.5481C47.6117 13.2775 48.103 15.272 48.103 17.5314ZM41.9973 15.8577C41.9692 14.3515 41.4218 13.152 40.3551 12.2594C39.2884 11.3389 37.983 10.8787 36.4391 10.8787C34.9793 10.8787 33.7442 11.325 32.7336 12.2176C31.7511 13.0823 31.1475 14.2957 30.923 15.8577H41.9973Z" fill="black"/>
<path d="M65.333 6.10879C68.1121 6.10879 70.3578 6.98745 72.0702 8.74477C73.7826 10.4742 74.6388 12.901 74.6388 16.0251V29.6234H68.7437V16.8201C68.7437 14.9791 68.2805 13.5704 67.3541 12.5941C66.4278 11.59 65.1645 11.0879 63.5644 11.0879C61.9363 11.0879 60.645 11.59 59.6905 12.5941C58.7641 13.5704 58.3009 14.9791 58.3009 16.8201V29.6234H52.4058V6.44352H58.3009V9.33054C59.087 8.32636 60.0835 7.54533 61.2906 6.98745C62.5258 6.40167 63.8732 6.10879 65.333 6.10879Z" fill="black"/>
<path d="M78.7288 17.9498C78.7288 15.6067 79.192 13.5286 80.1184 11.7155C81.0729 9.90237 82.3501 8.50767 83.9502 7.53138C85.5784 6.55509 87.389 6.06694 89.3821 6.06694C91.1226 6.06694 92.6385 6.41562 93.9298 7.11297C95.2492 7.81032 96.3019 8.68898 97.0879 9.74895V6.44352H103.025V29.6234H97.0879V26.2343C96.3299 27.3222 95.2772 28.2287 93.9298 28.954C92.6104 29.6513 91.0805 30 89.34 30C87.375 30 85.5784 29.4979 83.9502 28.4937C82.3501 27.4895 81.0729 26.0809 80.1184 24.2678C79.192 22.4268 78.7288 20.3208 78.7288 17.9498ZM97.0879 18.0335C97.0879 16.6109 96.8072 15.3975 96.2457 14.3933C95.6843 13.3612 94.9263 12.5802 93.9719 12.0502C93.0174 11.4923 91.9928 11.2134 90.898 11.2134C89.8032 11.2134 88.7926 11.4784 87.8662 12.0084C86.9399 12.5384 86.1819 13.3194 85.5924 14.3515C85.031 15.3556 84.7503 16.5551 84.7503 17.9498C84.7503 19.3445 85.031 20.5718 85.5924 21.6318C86.1819 22.6639 86.9399 23.4589 87.8662 24.0167C88.8207 24.5746 89.8313 24.8536 90.898 24.8536C91.9928 24.8536 93.0174 24.5886 93.9719 24.0586C94.9263 23.5007 95.6843 22.7197 96.2457 21.7155C96.8072 20.6834 97.0879 19.4561 97.0879 18.0335Z" fill="black"/>
<path d="M115.646 11.2552V22.4686C115.646 23.2497 115.829 23.8215 116.194 24.1841C116.587 24.5188 117.232 24.6862 118.131 24.6862H120.868V29.6234H117.162C112.193 29.6234 109.709 27.2245 109.709 22.4268V11.2552H106.93V6.44352H109.709V0.711295H115.646V6.44352H120.868V11.2552H115.646Z" fill="black"/>
<path d="M147.13 6.44352V29.6234H141.193V26.6946C140.435 27.6987 139.438 28.4937 138.203 29.0795C136.996 29.6374 135.677 29.9163 134.245 29.9163C132.42 29.9163 130.806 29.5398 129.403 28.7866C127.999 28.0056 126.89 26.8759 126.076 25.3975C125.29 23.8912 124.897 22.106 124.897 20.0418V6.44352H130.792V19.205C130.792 21.046 131.255 22.4686 132.182 23.4728C133.108 24.4491 134.371 24.9372 135.972 24.9372C137.6 24.9372 138.877 24.4491 139.803 23.4728C140.73 22.4686 141.193 21.046 141.193 19.205V6.44352H147.13Z" fill="black"/>
<path d="M158.842 10.0418C159.6 8.8145 160.582 7.85216 161.789 7.15481C163.024 6.45746 164.428 6.10879 166 6.10879V12.2594H164.442C162.589 12.2594 161.186 12.6918 160.231 13.5565C159.305 14.4212 158.842 15.9275 158.842 18.0753V29.6234H152.947V6.44352H158.842V10.0418Z" fill="black"/>
</g>
</svg>
