<svg width="168" height="48" viewBox="0 0 168 48" fill="none" xmlns="http://www.w3.org/2000/svg">
<g opacity="0.3">
<path d="M30.8187 32.4615V38.0513H0V34L9.39533 22.4103H2.99412V17.1282H13.68L21.3202 7.74359H0.258113V2.15385H30.0444V6.15385L21.0621 17.2308H27.0503V22.5128H16.7774L8.72423 32.4615H30.8187Z" fill="black"/>
<path d="M51.8731 10.359C54.5575 10.359 56.9494 10.9402 59.0487 12.1026C61.1824 13.265 62.8516 14.906 64.0561 17.0256C65.2606 19.1453 65.8629 21.5897 65.8629 24.359C65.8629 27.1282 65.2606 29.5897 64.0561 31.7436C62.8516 33.8633 61.1824 35.5043 59.0487 36.6667C56.9494 37.8291 54.5575 38.4103 51.8731 38.4103C48.1563 38.4103 45.2138 37.1795 43.0457 34.7179V48H36.5928V10.6667H42.7359V14.2564C43.8028 12.9573 45.1106 11.9829 46.6593 11.3333C48.2423 10.6838 49.9803 10.359 51.8731 10.359ZM51.1504 32.9231C53.5251 32.9231 55.4695 32.1368 56.9838 30.5641C58.5325 28.9915 59.3068 26.9231 59.3068 24.359C59.3068 21.7949 58.5325 19.7265 56.9838 18.1538C55.4695 16.5812 53.5251 15.7949 51.1504 15.7949C49.6017 15.7949 48.2079 16.1538 46.969 16.8718C45.73 17.5556 44.7492 18.547 44.0265 19.8462C43.3038 21.1453 42.9424 22.6496 42.9424 24.359C42.9424 26.0684 43.3038 27.5727 44.0265 28.8718C44.7492 30.1709 45.73 31.1795 46.969 31.8974C48.2079 32.5812 49.6017 32.9231 51.1504 32.9231Z" fill="black"/>
<path d="M87.6243 10.359C91.1002 10.359 93.8878 11.3675 95.9872 13.3846C98.0865 15.4017 99.1361 18.3932 99.1361 22.359V38.0513H92.6833V23.1795C92.6833 20.7863 92.1155 18.9915 90.9798 17.7949C89.8441 16.5641 88.2265 15.9487 86.1272 15.9487C83.7526 15.9487 81.877 16.6667 80.5004 18.1026C79.1237 19.5043 78.4354 21.5385 78.4354 24.2051V38.0513H71.9826V0H78.4354V13.8462C79.5023 12.718 80.8101 11.8633 82.3588 11.2821C83.9419 10.6667 85.697 10.359 87.6243 10.359Z" fill="black"/>
<path d="M119.963 38.4103C117.176 38.4103 114.664 37.812 112.427 36.6154C110.19 35.4188 108.434 33.7607 107.161 31.641C105.922 29.4872 105.303 27.0598 105.303 24.359C105.303 21.6581 105.922 19.2479 107.161 17.1282C108.434 15.0085 110.19 13.3504 112.427 12.1538C114.664 10.9573 117.176 10.359 119.963 10.359C122.786 10.359 125.315 10.9573 127.552 12.1538C129.789 13.3504 131.527 15.0085 132.766 17.1282C134.039 19.2479 134.676 21.6581 134.676 24.359C134.676 27.0598 134.039 29.4872 132.766 31.641C131.527 33.7607 129.789 35.4188 127.552 36.6154C125.315 37.812 122.786 38.4103 119.963 38.4103ZM119.963 32.9231C122.338 32.9231 124.3 32.1368 125.848 30.5641C127.397 28.9915 128.171 26.9231 128.171 24.359C128.171 21.7949 127.397 19.7265 125.848 18.1538C124.3 16.5812 122.338 15.7949 119.963 15.7949C117.589 15.7949 115.627 16.5812 114.078 18.1538C112.564 19.7265 111.807 21.7949 111.807 24.359C111.807 26.9231 112.564 28.9915 114.078 30.5641C115.627 32.1368 117.589 32.9231 119.963 32.9231Z" fill="black"/>
<path d="M156.488 10.359C159.964 10.359 162.752 11.3675 164.851 13.3846C166.95 15.4017 168 18.3932 168 22.359V38.0513H161.547V23.1795C161.547 20.7863 160.979 18.9915 159.844 17.7949C158.708 16.5641 157.09 15.9487 154.991 15.9487C152.616 15.9487 150.741 16.6667 149.364 18.1026C147.988 19.5043 147.299 21.5385 147.299 24.2051V38.0513H140.846V10.6667H146.99V14.2051C148.056 12.9402 149.399 11.9829 151.016 11.3333C152.634 10.6838 154.458 10.359 156.488 10.359Z" fill="black"/>
</g>
</svg>
