<svg width="20" height="20" viewBox="0 0 20 20" fill="none" xmlns="http://www.w3.org/2000/svg">
<path d="M10 0C4.48597 0 0 4.48597 0 10C0 15.514 4.48597 20 10 20C15.514 20 20 15.514 20 10C20 4.48597 15.514 0 10 0ZM10 19.0287C5.02137 19.0287 0.971326 14.9782 0.971326 10C0.971326 5.02176 5.02137 0.971326 10 0.971326C14.9786 0.971326 19.0287 5.02176 19.0287 10C19.0287 14.9782 14.9786 19.0287 10 19.0287ZM12.8631 11.924C12.8631 13.1133 11.834 14.104 10.4858 14.2987V14.9999C10.4858 15.2682 10.2681 15.4859 9.99981 15.4859C9.73147 15.4859 9.51383 15.2683 9.51383 14.9999V14.2994C8.52747 14.16 7.69792 13.6006 7.32881 12.7961C7.21681 12.5522 7.3238 12.2637 7.5677 12.152C7.81159 12.04 8.1001 12.147 8.2118 12.3909C8.47831 12.9715 9.19681 13.3617 9.99951 13.3617C11.0425 13.3617 11.8909 12.7167 11.8909 11.9239C11.8909 11.131 11.0423 10.486 9.99951 10.486C8.42064 10.486 7.13639 9.4051 7.13639 8.07648C7.13639 6.88722 8.16553 5.89647 9.51373 5.70174L9.51388 5.00056C9.51388 4.73223 9.73152 4.51459 9.99986 4.51459C10.2682 4.51459 10.4858 4.73222 10.4858 5.00056V5.70174C11.5737 5.85882 12.4774 6.5351 12.7669 7.453C12.8477 7.70889 12.7058 7.98175 12.4499 8.06253C12.194 8.14327 11.9211 8.00137 11.8404 7.74548C11.6379 7.10409 10.8642 6.63879 10 6.63879C8.95703 6.63879 8.10848 7.28383 8.10848 8.07666C8.10848 8.8695 8.95703 9.51454 10 9.51454C11.5789 9.51439 12.8631 10.5953 12.8631 11.924L12.8631 11.924ZM10 2.02891C5.60455 2.02891 2.02891 5.6049 2.02891 10C2.02891 14.3951 5.60459 17.9711 10 17.9711C14.3954 17.9711 17.9711 14.3954 17.9711 10C17.9711 5.60459 14.3954 2.02891 10 2.02891ZM10 16.9998C6.14034 16.9998 3.00023 13.8598 3.00023 10C3.00023 6.14018 6.14018 3.00023 10 3.00023C13.8598 3.00023 16.9998 6.14018 16.9998 10C16.9998 13.8598 13.8598 16.9998 10 16.9998Z" fill="#E98B6E"/>
</svg>
