<svg width="69" height="78" viewBox="0 0 69 78" fill="none" xmlns="http://www.w3.org/2000/svg">
<path fill-rule="evenodd" clip-rule="evenodd" d="M13.77 3.12221C11.9306 3.12221 10.4396 4.61327 10.4396 6.45257C10.4396 7.31475 9.74066 8.01368 8.87849 8.01368C8.01631 8.01368 7.31738 7.31475 7.31738 6.45257C7.31738 2.88892 10.2063 0 13.77 0H60.6031C64.914 0 68.4087 3.49466 68.4087 7.80553V64.1094C68.4087 68.4203 64.914 71.915 60.6031 71.915H56.9606C56.0984 71.915 55.3995 71.216 55.3995 70.3539C55.3995 69.4917 56.0984 68.7927 56.9606 68.7927H60.6031C63.1897 68.7927 65.2865 66.6959 65.2865 64.1094V7.80553C65.2865 5.219 63.1897 3.12221 60.6031 3.12221H13.77Z" fill="#0A0335"/>
<path d="M56.0136 23.6429H50.5428H43.0581H42.4372H42.2945C42.1938 23.6429 42.0428 23.5925 41.9421 23.6177C41.9505 23.6177 42.2861 23.6764 42.1015 23.6345C42.026 23.6177 41.9505 23.6093 41.875 23.5925C41.7491 23.559 41.6232 23.5254 41.4974 23.4834C41.447 23.4667 41.3883 23.4415 41.338 23.4247C41.1534 23.366 41.4974 23.4834 41.4806 23.4918C41.3883 23.5422 40.8848 23.1646 40.8009 23.1142C40.5408 22.9548 41.0191 23.3156 40.7925 23.1142C40.7002 23.0303 40.5995 22.9464 40.5072 22.8541C40.4317 22.7786 40.3562 22.6947 40.2807 22.6108C40.2639 22.594 40.1716 22.5017 40.1716 22.4849C40.1716 22.5101 40.373 22.7786 40.2387 22.5604C40.1129 22.3507 40.0038 22.1409 39.8863 21.9395C39.8024 21.7885 39.945 22.0738 39.945 22.0822C39.945 22.0402 39.9031 21.9647 39.8863 21.9227C39.836 21.7801 39.794 21.6374 39.7604 21.4864C39.7437 21.4193 39.6849 21.0501 39.7185 21.3186C39.7604 21.5871 39.7101 21.134 39.7101 21.0752V20.9326V20.7228V13.9094C39.7101 11.7698 39.7688 9.61324 39.7101 7.4736V7.36451C38.7535 7.75889 37.7969 8.15326 36.8488 8.54763C38.8711 10.5699 40.8849 12.5837 42.907 14.6058L52.5734 24.2722C53.3202 25.019 54.0586 25.7574 54.8054 26.5042C55.4264 27.1251 56.5675 27.1755 57.1801 26.5042C57.7927 25.8329 57.843 24.7925 57.1801 24.1295C55.1579 22.1072 53.144 20.0934 51.1219 18.0713L41.4556 8.40494C40.7088 7.65814 39.9704 6.91974 39.2236 6.17293C38.1999 5.14923 36.3623 5.90442 36.3623 7.35604V13.0284V20.4712C36.3623 21.8724 36.614 23.2738 37.4699 24.4233C38.6866 26.0595 40.4823 26.9826 42.5297 26.9909H49.2006C51.4242 26.9909 53.6562 27.0328 55.8797 26.9909H55.9972C56.8783 26.9909 57.7174 26.2189 57.6755 25.3126C57.6503 24.4148 56.9539 23.6428 56.0141 23.6428L56.0136 23.6429Z" fill="#0A0335"/>
<path d="M54.3353 25.3196V30.1947V41.7574V55.4095V66.5527V69.7329V70.4965V70.6224C54.3353 70.7818 54.3269 70.9412 54.3185 71.1007C54.3185 71.1426 54.3101 71.1762 54.3101 71.2181C54.2934 71.3692 54.2934 71.3692 54.3101 71.2265C54.3185 71.193 54.3185 71.151 54.3269 71.1174C54.3185 71.193 54.3018 71.2685 54.285 71.344C54.243 71.5622 54.1843 71.7803 54.1088 71.9985C54.0836 72.0656 54.0584 72.1411 54.0333 72.2083C53.9074 72.5775 54.2095 71.8726 54.0333 72.2167C53.9493 72.3845 53.8654 72.5439 53.7731 72.7033C53.7312 72.7705 53.5298 73.1648 53.4711 73.1648C53.4711 73.1648 53.7396 72.846 53.5298 73.0809C53.4459 73.1816 53.362 73.2739 53.2781 73.3662C53.169 73.4837 53.0515 73.6012 52.9256 73.7103C52.8837 73.7438 52.7243 73.92 52.6739 73.92C52.7327 73.92 52.9508 73.727 52.7494 73.8529C52.5984 73.9536 52.4474 74.0543 52.2879 74.1466C52.1956 74.2053 52.095 74.2557 51.9943 74.306L51.8936 74.3564C51.7257 74.4319 51.7593 74.4151 51.9859 74.3228C51.9607 74.3899 51.5244 74.4822 51.4572 74.5074C51.2726 74.5577 51.088 74.5913 50.9034 74.6333C50.5342 74.7172 51.1971 74.6081 50.9538 74.6333C50.8615 74.6417 50.7608 74.65 50.6685 74.6584C50.551 74.6668 50.4335 74.6668 50.3161 74.6668H50.207H48.0925H38.0485H24.5475H12.5988C10.8535 74.6668 9.10818 74.6836 7.36286 74.6668C7.28735 74.6668 7.20343 74.6668 7.12793 74.6584C7.01045 74.65 6.89299 74.6417 6.78389 74.6333C6.51538 74.6165 6.88459 74.65 6.88459 74.65C6.85102 74.7004 5.72663 74.4151 5.69308 74.3228C5.72664 74.3983 6.01193 74.4822 5.73503 74.3312C5.65112 74.2892 5.5672 74.2473 5.4917 74.2053C5.33226 74.1214 5.17285 74.0207 5.02181 73.92C5.0302 73.9284 4.83721 73.8026 4.8456 73.7942C4.90434 73.8361 4.95468 73.8781 5.01343 73.92C4.95469 73.8781 4.89596 73.8277 4.8456 73.7774C4.69457 73.6431 4.55191 73.5089 4.40927 73.3578C4.35053 73.2907 4.2834 73.2236 4.22467 73.1565C4.17432 73.0977 4.06524 72.8544 4.14915 73.0725C4.24145 73.3075 4.12398 73.0306 4.09041 72.9719C4.04007 72.8963 3.98972 72.8208 3.93938 72.7369C3.85547 72.5943 3.77155 72.4516 3.69604 72.3006C3.67926 72.267 3.66248 72.2335 3.6457 72.1999C3.57018 72.0321 3.58696 72.0656 3.67926 72.2922C3.65409 72.2838 3.57018 72.0069 3.56179 71.9817C3.50305 71.8055 3.45271 71.6209 3.41075 71.4363C3.40236 71.4111 3.32684 71.1091 3.34362 71.1007C3.35201 71.1007 3.38558 71.5454 3.36041 71.2014C3.34362 71.0084 3.33523 70.807 3.32684 70.614V69.4309V61.8959V49.8465V36.1273V23.5913V15.0913V13.2453V13.0859V13.0607C3.32684 12.9768 3.32684 12.9097 3.33523 12.8258C3.33523 12.7503 3.34363 12.6664 3.35202 12.5909C3.36041 12.5153 3.3688 12.4398 3.37719 12.3643C3.34362 12.5992 3.33523 12.658 3.36041 12.5237C3.44432 12.1713 3.52823 11.8357 3.6457 11.4916C3.77157 11.1225 3.4695 11.8273 3.6457 11.4833L3.74639 11.2819C3.84709 11.0889 3.96456 10.8959 4.08203 10.7113C4.1156 10.6609 4.24147 10.384 4.14077 10.6106C4.04847 10.8288 4.16594 10.5854 4.21629 10.5267C4.33376 10.384 4.45962 10.2582 4.59387 10.1323C4.67778 10.0568 4.90433 9.77149 5.00503 9.77149C4.9463 9.77149 4.72813 9.96448 4.92951 9.83862C5.05538 9.7631 5.17284 9.67079 5.29871 9.60368C5.45814 9.51138 5.62595 9.42748 5.78539 9.34356C6.01195 9.22609 5.70148 9.35195 5.69309 9.37713C5.70987 9.34356 5.91125 9.29322 5.9532 9.27644C6.12941 9.2177 6.31402 9.16735 6.49022 9.117C6.58252 9.09183 6.67482 9.08344 6.76713 9.05826C7.12794 8.97435 6.43149 9.07505 6.77552 9.04987C6.99369 9.03309 7.21185 9.0247 7.4384 9.01631H8.28588H12.3051H25.2272H36.3116H38.0821C37.6877 8.84848 37.2933 8.68907 36.899 8.52124C38.9212 10.5435 40.935 12.5573 42.9572 14.5794L52.6235 24.2458C53.3703 24.9926 54.1087 25.731 54.8555 26.4778C55.4765 27.0988 56.6176 27.1491 57.2302 26.4778C57.8428 25.8065 57.8931 24.7661 57.2302 24.1031L39.4748 6.34769C39.072 5.94492 38.6189 5.67641 38.0148 5.65963C36.9743 5.63445 35.9255 5.65963 34.885 5.65963H20.6876H8.43678H7.43826C5.92788 5.66802 4.39228 6.10434 3.16726 6.98539C1.08638 8.48738 0.00390625 10.7697 0.00390625 13.3205V20.4445V33.9875V49.6701V63.2131V70.3371C0.00390625 72.9215 1.12829 75.2375 3.25963 76.731C4.71965 77.7631 6.42299 77.998 8.16002 77.998H18.0865H33.4591H46.5909H49.9054C50.1319 77.998 50.3585 78.0064 50.585 77.9896C52.6576 77.9057 54.6966 76.9659 56.0056 75.3381C57.1048 73.9704 57.7173 72.3509 57.7342 70.5889V69.968V66.4186V53.2783V37.7967V26.8802V25.2943C57.7342 24.4132 56.9622 23.5741 56.0559 23.616C55.0993 23.6832 54.3357 24.3796 54.3357 25.3195L54.3353 25.3196Z" fill="#0A0335"/>
<path d="M12.9337 42.2191H16.0886H23.6741H32.8453H40.7831C42.0753 42.2191 43.3676 42.2527 44.6513 42.2191H44.7101C45.5911 42.2191 46.4302 41.4471 46.3883 40.5408C46.3464 39.6346 45.6499 38.8626 44.7101 38.8626H41.5552H33.9697H24.7984H16.8607C15.5684 38.8626 14.2762 38.829 12.9924 38.8626H12.9337C12.0526 38.8626 11.2135 39.6345 11.2554 40.5408C11.2973 41.4471 11.9938 42.2191 12.9337 42.2191Z" fill="#0A0335"/>
<path d="M12.9337 52.9681H16.0886H23.6741H32.8453H40.7831C42.0753 52.9681 43.3676 53.0017 44.6513 52.9681H44.7101C45.5911 52.9681 46.4302 52.1962 46.3883 51.2899C46.3464 50.3837 45.6499 49.6116 44.7101 49.6116H41.5552H33.9697H24.7984H16.8607C15.5684 49.6116 14.2762 49.578 12.9924 49.6116H12.9337C12.0526 49.6116 11.2135 50.3836 11.2554 51.2899C11.2974 52.2045 11.9938 52.9681 12.9337 52.9681Z" fill="#0A0335"/>
<path d="M12.9337 63.7257H19.4115H29.7911H32.1658C33.0468 63.7257 33.8859 62.9537 33.844 62.0474C33.8021 61.1411 33.1056 60.3691 32.1658 60.3691H25.6879H15.3084H12.9337C12.0526 60.3691 11.2135 61.1411 11.2554 62.0474C11.2973 62.9537 11.9938 63.7257 12.9337 63.7257Z" fill="#0A0335"/>
</svg>
