<svg width="69" height="80" viewBox="0 0 69 80" fill="none" xmlns="http://www.w3.org/2000/svg">
<path fill-rule="evenodd" clip-rule="evenodd" d="M3.85006 2.5641C3.142 2.5641 2.56801 3.1381 2.56801 3.84615V76.1538C2.56801 76.8619 3.142 77.4359 3.85006 77.4359H65.1321C65.8402 77.4359 66.4142 76.8619 66.4142 76.1538V3.84615C66.4142 3.1381 65.8402 2.5641 65.1321 2.5641H3.85006ZM0.00390625 3.84615C0.00390625 1.72198 1.72589 0 3.85006 0H65.1321C67.2563 0 68.9783 1.72198 68.9783 3.84615V76.1538C68.9783 78.278 67.2563 80 65.1321 80H3.85006C1.72589 80 0.00390625 78.278 0.00390625 76.1538V3.84615Z" fill="#0A0335"/>
<path fill-rule="evenodd" clip-rule="evenodd" d="M18.9785 26.4104C18.9785 25.844 19.4377 25.3848 20.0042 25.3848H48.9785C49.545 25.3848 50.0042 25.844 50.0042 26.4104C50.0042 26.9769 49.545 27.436 48.9785 27.436H20.0042C19.4377 27.436 18.9785 26.9769 18.9785 26.4104Z" fill="#0A0335"/>
<path fill-rule="evenodd" clip-rule="evenodd" d="M0.259766 12.3076H68.4669V14.3589H0.259766V12.3076Z" fill="#0A0335"/>
<path fill-rule="evenodd" clip-rule="evenodd" d="M8.97817 8.46181C9.54461 8.46181 10.0038 8.00262 10.0038 7.43617C10.0038 6.86973 9.54461 6.41053 8.97817 6.41053C8.41172 6.41053 7.95252 6.86973 7.95252 7.43617C7.95252 8.00262 8.41172 8.46181 8.97817 8.46181ZM8.97817 10.0003C10.3943 10.0003 11.5423 8.85229 11.5423 7.43617C11.5423 6.02006 10.3943 4.87207 8.97817 4.87207C7.56205 4.87207 6.41406 6.02006 6.41406 7.43617C6.41406 8.85229 7.56205 10.0003 8.97817 10.0003Z" fill="#0A0335"/>
<path fill-rule="evenodd" clip-rule="evenodd" d="M16.6705 8.46181C17.237 8.46181 17.6962 8.00262 17.6962 7.43617C17.6962 6.86973 17.237 6.41053 16.6705 6.41053C16.1041 6.41053 15.6449 6.86973 15.6449 7.43617C15.6449 8.00262 16.1041 8.46181 16.6705 8.46181ZM16.6705 10.0003C18.0867 10.0003 19.2347 8.85229 19.2347 7.43617C19.2347 6.02006 18.0867 4.87207 16.6705 4.87207C15.2544 4.87207 14.1064 6.02006 14.1064 7.43617C14.1064 8.85229 15.2544 10.0003 16.6705 10.0003Z" fill="#0A0335"/>
<path fill-rule="evenodd" clip-rule="evenodd" d="M24.3629 8.46181C24.9294 8.46181 25.3886 8.00262 25.3886 7.43617C25.3886 6.86973 24.9294 6.41053 24.3629 6.41053C23.7965 6.41053 23.3373 6.86973 23.3373 7.43617C23.3373 8.00262 23.7965 8.46181 24.3629 8.46181ZM24.3629 10.0003C25.779 10.0003 26.927 8.85229 26.927 7.43617C26.927 6.02006 25.779 4.87207 24.3629 4.87207C22.9468 4.87207 21.7988 6.02006 21.7988 7.43617C21.7988 8.85229 22.9468 10.0003 24.3629 10.0003Z" fill="#0A0335"/>
<path fill-rule="evenodd" clip-rule="evenodd" d="M51.5417 34.6157H19.234C18.9508 34.6157 18.7212 34.8453 18.7212 35.1286V37.1798C18.7212 37.4631 18.9508 37.6927 19.234 37.6927H51.5417C51.8249 37.6927 52.0545 37.4631 52.0545 37.1798V35.1286C52.0545 34.8453 51.8249 34.6157 51.5417 34.6157ZM19.234 32.5645C17.8179 32.5645 16.6699 33.7124 16.6699 35.1286V37.1798C16.6699 38.596 17.8179 39.7439 19.234 39.7439H51.5417C52.9578 39.7439 54.1058 38.596 54.1058 37.1798V35.1286C54.1058 33.7124 52.9578 32.5645 51.5417 32.5645H19.234Z" fill="#0A0335"/>
<path fill-rule="evenodd" clip-rule="evenodd" d="M51.5417 47.9487H19.234C18.9508 47.9487 18.7212 48.1783 18.7212 48.4616V50.5128C18.7212 50.7961 18.9508 51.0257 19.234 51.0257H51.5417C51.8249 51.0257 52.0545 50.7961 52.0545 50.5128V48.4616C52.0545 48.1783 51.8249 47.9487 51.5417 47.9487ZM19.234 45.8975C17.8179 45.8975 16.6699 47.0454 16.6699 48.4616V50.5128C16.6699 51.929 17.8179 53.0769 19.234 53.0769H51.5417C52.9578 53.0769 54.1058 51.929 54.1058 50.5128V48.4616C54.1058 47.0454 52.9578 45.8975 51.5417 45.8975H19.234Z" fill="#0A0335"/>
<path fill-rule="evenodd" clip-rule="evenodd" d="M27.4395 61.5384C27.4395 59.6975 28.9318 58.2051 30.7728 58.2051H40.0036C41.8445 58.2051 43.3369 59.6975 43.3369 61.5384C43.3369 63.3794 41.8445 64.8717 40.0036 64.8717H30.7728C28.9318 64.8717 27.4395 63.3794 27.4395 61.5384ZM30.7728 60.2564C30.0647 60.2564 29.4907 60.8304 29.4907 61.5384C29.4907 62.2465 30.0647 62.8205 30.7728 62.8205H40.0036C40.7116 62.8205 41.2856 62.2465 41.2856 61.5384C41.2856 60.8304 40.7116 60.2564 40.0036 60.2564H30.7728Z" fill="#0A0335"/>
</svg>
