<svg width="49" height="67" viewBox="0 0 49 67" fill="none" xmlns="http://www.w3.org/2000/svg">
<path d="M24.2658 0C17.8333 0.00716518 11.6664 2.56571 7.11834 7.11382C2.56962 11.6625 0.0110905 17.8299 0.00390625 24.2629C0.00390625 49.5684 22.5274 65.9394 23.4904 66.6349H23.491C23.9579 66.9573 24.5753 66.9573 25.0422 66.6349C26.0053 65.9392 48.5287 49.5684 48.5287 24.2629H48.5293C48.5221 17.8303 45.9636 11.6628 41.4149 7.11382C36.8661 2.56571 30.6993 0.00718429 24.2674 0H24.2658ZM24.2658 63.853C20.3072 60.7499 2.67784 45.6095 2.67784 24.263C2.67784 16.5503 6.79244 9.42395 13.4715 5.56859C20.1506 1.712 28.3798 1.712 35.0596 5.56859C41.7386 9.42471 45.8533 16.5511 45.8533 24.263C45.8533 45.582 28.2242 60.7225 24.2652 63.853H24.2658Z" fill="#0A0335"/>
<path d="M24.2657 12.5996C21.1728 12.5996 18.2057 13.8284 16.0186 16.0157C13.8314 18.2029 12.6025 21.1692 12.6025 24.2628C12.6025 27.3557 13.8314 30.3222 16.0186 32.5093C18.2058 34.6965 21.1728 35.9253 24.2657 35.9253C27.3586 35.9253 30.3257 34.6965 32.5128 32.5093C34.7 30.322 35.9289 27.3557 35.9289 24.2628C35.9217 21.1715 34.6905 18.2089 32.5052 16.0235C30.3192 13.8374 27.3569 12.6068 24.2659 12.5998L24.2657 12.5996ZM24.2657 33.2506V33.25C21.882 33.25 19.5958 32.303 17.9102 30.618C16.2246 28.9324 15.2775 26.6461 15.2775 24.2625C15.2775 21.8782 16.2245 19.5925 17.9102 17.907C19.5958 16.2214 21.882 15.2743 24.2657 15.2743C26.6494 15.2743 28.9356 16.2213 30.6212 17.907C32.3068 19.5925 33.2539 21.8782 33.2539 24.2625C33.2467 26.6437 32.2973 28.9258 30.6136 30.6096C28.9291 32.294 26.6477 33.2433 24.2659 33.2499L24.2657 33.2506Z" fill="#0A0335"/>
</svg>
